<svg xmlns="http://www.w3.org/2000/svg" width="41" height="41" viewBox="0 0 41 41"><defs><style>.a,.c{fill:none;}.a{stroke:#f4f4f4;stroke-miterlimit:10;}.b{fill:#161616;}</style></defs><g transform="translate(0.5 0.5)"><rect class="a" width="40" height="40"/><g transform="translate(8 8)"><path class="b" d="M17,0H1A1,1,0,0,0,0,1V17a1,1,0,0,0,1,1H9.615V11.04H7.275V8.318h2.34v-2a3.276,3.276,0,0,1,3.5-3.592,13.972,13.972,0,0,1,2.092.105V5.25H13.778c-1.132,0-1.35.54-1.35,1.327V8.31h2.7l-.352,2.722H12.427V18H17a1,1,0,0,0,1-1V1A1,1,0,0,0,17,0Z" transform="translate(3 3)"/><rect class="c" width="24" height="24"/></g></g></svg>