<svg xmlns="http://www.w3.org/2000/svg" width="65.46" height="62" viewBox="0 0 65.46 62"><defs><style>.a{fill:#2842fa;}</style></defs><g transform="translate(-5 -7.379)"><g transform="translate(5 7.379)"><path class="a" d="M85.163,58.372A29.532,29.532,0,0,1,72.418,77.7l1.037,2.148A31.9,31.9,0,0,0,87.57,58.372Z" transform="translate(-23.383 -21.283)"/><path class="a" d="M21.369,80.076l1.077-2.122A29.529,29.529,0,0,1,9.3,58.372H6.9A31.9,31.9,0,0,0,21.369,80.076Z" transform="translate(-5.517 -21.283)"/><path class="a" d="M43.657,9.748a29.288,29.288,0,0,1,15.091,4.169l2.316-1.339a31.736,31.736,0,0,0-34.521-.188l2.333,1.348A29.287,29.287,0,0,1,43.657,9.748Z" transform="translate(-10.874 -7.379)"/><path class="a" d="M16.236,44.858A16.449,16.449,0,0,0,27.01,40.847a1.044,1.044,0,0,0,.393-1.163l.01,0a9.134,9.134,0,0,0-8.723-6.553h-.816a6.81,6.81,0,1,0-3.271,0H13.74a9.121,9.121,0,0,0-8.7,6.533l.009,0A1.019,1.019,0,0,0,5,39.948a1.086,1.086,0,0,0,.372.815l0,0A16.441,16.441,0,0,0,16.236,44.858Zm10.154-4.879Z" transform="translate(-5 -10.743)"/><path class="a" d="M86.584,39.982a1.06,1.06,0,0,0-.047-.3l.01,0a9.134,9.134,0,0,0-8.723-6.553h-.816a6.81,6.81,0,1,0-3.272,0h-.864a9.118,9.118,0,0,0-8.586,6.185c-.039.116-.083.23-.118.348l.009,0a1.046,1.046,0,0,0-.043.284,1.073,1.073,0,0,0,.217.645,1.111,1.111,0,0,0,.156.169l0,0a16.473,16.473,0,0,0,21.638.083A1.067,1.067,0,0,0,86.584,39.982Zm-1.061,0Z" transform="translate(-21.124 -10.743)"/><path class="a" d="M57.093,78.32a1.051,1.051,0,0,0-.047-.3l.01,0a9.134,9.134,0,0,0-8.724-6.553h-.818a6.809,6.809,0,1,0-3.267,0h-.866A9.121,9.121,0,0,0,34.678,78l.009,0a1.046,1.046,0,0,0-.043.284,1.085,1.085,0,0,0,.372.815l0,0a16.471,16.471,0,0,0,21.639.081A1.068,1.068,0,0,0,57.093,78.32ZM35.7,78.3Z" transform="translate(-13.083 -21.197)"/></g></g></svg>