<svg xmlns="http://www.w3.org/2000/svg" width="60.24" height="62" viewBox="0 0 60.24 62"><defs><style>.a{fill:#2842fa;}</style></defs><g transform="translate(-3.8 -2.4)"><g transform="translate(3.8 2.4)"><path class="a" d="M59.8,10.362H34.343a.333.333,0,0,1-.326-.261l-1.7-4.829A4.3,4.3,0,0,0,28.274,2.4H8.107A4.389,4.389,0,0,0,3.8,6.707V43.973a4.234,4.234,0,0,0,4.242,4.242H16a18.189,18.189,0,0,0,36.156,0H59.8a4.234,4.234,0,0,0,4.242-4.242v-29.3A4.248,4.248,0,0,0,59.8,10.362ZM34.147,60.55A14.293,14.293,0,1,1,48.44,46.257,14.289,14.289,0,0,1,34.147,60.55Zm26.04-16.577a.421.421,0,0,1-.392.392H52.16a18.189,18.189,0,0,0-36.156,0h-7.9a.421.421,0,0,1-.392-.392V6.707a.421.421,0,0,1,.392-.392H28.274c.131,0,.326.131.326.261l1.7,4.829a4.3,4.3,0,0,0,4.046,2.872H59.8a.421.421,0,0,1,.392.392Z" transform="translate(-3.8 -2.4)"/><path class="a" d="M51.818,60.853H51.3V58.307A4.3,4.3,0,0,0,46.988,54H45.422a4.3,4.3,0,0,0-4.307,4.307v2.545h-.522A1.894,1.894,0,0,0,38.7,62.745v7.962A1.894,1.894,0,0,0,40.593,72.6H51.818a1.894,1.894,0,0,0,1.893-1.893V62.745A1.815,1.815,0,0,0,51.818,60.853Zm-4.96,5.939.653,2.48a.327.327,0,0,1-.326.392H45.292a.327.327,0,0,1-.326-.392l.653-2.48a1.585,1.585,0,0,1-.914-1.371,1.5,1.5,0,1,1,3,0A1.416,1.416,0,0,1,46.858,66.792Zm1.893-5.939h-4.96V58.307a1.728,1.728,0,0,1,1.7-1.7h1.566a1.728,1.728,0,0,1,1.7,1.7Z" transform="translate(-15.923 -20.324)"/></g></g></svg>