<svg xmlns="http://www.w3.org/2000/svg" width="68.388" height="61.549" viewBox="0 0 68.388 61.549"><defs><style>.a{fill:#2842fa;}</style></defs><path class="a" d="M66.968,8.839H22.516V5.419A3.421,3.421,0,0,0,19.1,2H12.258A10.258,10.258,0,0,0,2,12.258V53.291A10.258,10.258,0,0,0,12.258,63.549h54.71a3.421,3.421,0,0,0,3.419-3.419V12.258A3.421,3.421,0,0,0,66.968,8.839ZM15.678,46.452H12.258a10.273,10.273,0,0,0-3.419.585V12.258a3.423,3.423,0,0,1,3.419-3.419h3.419ZM60.13,38.293a1.158,1.158,0,0,1-1.966.831l-3.235-3.149L45.45,45.454l-.027-.027a3.6,3.6,0,0,1-4.948-.113l-4.281-4.285-3.447,3.447a3.419,3.419,0,0,1-4.835-4.835l5.721-5.721a3.622,3.622,0,0,1,5.119,0L43.033,38.2l7.02-7.02-3.224-3.272a1.157,1.157,0,0,1,.824-1.97h10.7a1.779,1.779,0,0,1,1.778,1.778Z" transform="translate(-2 -2)"/></svg>