<svg xmlns="http://www.w3.org/2000/svg" width="62.1" height="62.1" viewBox="0 0 62.1 62.1"><defs><style>.a{fill:#2842fa;}</style></defs><path class="a" d="M25.469,12.938a6.406,6.406,0,0,0,6.469-6.469A6.469,6.469,0,1,0,19,6.469,6.406,6.406,0,0,0,25.469,12.938Zm0-10.35A3.812,3.812,0,0,1,29.35,6.469a3.881,3.881,0,1,1-7.763,0A3.812,3.812,0,0,1,25.469,2.588Z" transform="translate(5.581)"/><path class="a" d="M18.294,27.525H33.819a1.222,1.222,0,0,0,1.294-1.294V21.056a9.056,9.056,0,0,0-18.113,0v5.175A1.222,1.222,0,0,0,18.294,27.525Zm1.294-6.469a6.469,6.469,0,0,1,12.938,0v3.881H19.588Z" transform="translate(4.994 3.525)"/><path class="a" d="M42.469,36.938A6.469,6.469,0,1,0,36,30.469,6.406,6.406,0,0,0,42.469,36.938Zm0-10.35a3.881,3.881,0,1,1-3.881,3.881A3.812,3.812,0,0,1,42.469,26.588Z" transform="translate(10.575 7.05)"/><path class="a" d="M43.056,36A9,9,0,0,0,34,45.056v5.175a1.222,1.222,0,0,0,1.294,1.294H50.819a1.222,1.222,0,0,0,1.294-1.294V45.056A9,9,0,0,0,43.056,36Zm6.469,12.938H36.588V45.056a6.469,6.469,0,0,1,12.938,0Z" transform="translate(9.988 10.575)"/><path class="a" d="M8.469,36.938A6.469,6.469,0,1,0,8.469,24a6.469,6.469,0,1,0,0,12.938Zm0-10.35a3.881,3.881,0,0,1,0,7.763,3.881,3.881,0,1,1,0-7.763Z" transform="translate(0.588 7.05)"/><path class="a" d="M9.056,36A9,9,0,0,0,0,45.056v5.175a1.222,1.222,0,0,0,1.294,1.294H16.819a1.222,1.222,0,0,0,1.294-1.294V45.056A9,9,0,0,0,9.056,36Zm6.469,12.938H2.588V45.056a6.406,6.406,0,0,1,6.469-6.469,6.406,6.406,0,0,1,6.469,6.469Z" transform="translate(0 10.575)"/><path class="a" d="M36.645,43.336l-8.927-7.763v-8.28a1.294,1.294,0,0,0-2.588,0v8.28L16.2,43.336a1.258,1.258,0,0,0-.129,1.811,1.375,1.375,0,0,0,1.811.129L26.425,37.9l8.539,7.374a1.258,1.258,0,0,0,1.811-.129A1.158,1.158,0,0,0,36.645,43.336Z" transform="translate(4.625 7.638)"/></svg>