<svg xmlns="http://www.w3.org/2000/svg" width="61.559" height="61.559" viewBox="0 0 61.559 61.559"><defs><style>.a{fill:#2842fa;}</style></defs><g transform="translate(-3 -3)"><path class="a" d="M64.559,33.779,60.206,26.7l.229-8.308-7.31-3.956-3.957-7.31-8.308.228L33.779,3,26.7,7.352,18.39,7.124l-3.956,7.31L7.124,18.39,7.352,26.7,3,33.779,7.352,40.86l-.229,8.308,7.31,3.956,3.956,7.31,8.308-.228,7.081,4.352,7.081-4.352,8.308.228,3.956-7.309,7.31-3.956-.229-8.308ZM30.59,47.876,17.682,34.968l4.836-4.836,7.611,7.611L44.831,20.1l5.257,4.382Z"/></g></svg>