<svg xmlns="http://www.w3.org/2000/svg" width="62.127" height="62.127" viewBox="0 0 62.127 62.127"><defs><style>.a{fill:#2842fa;}</style></defs><g transform="translate(0.001 0.001)"><g transform="translate(-0.001 -0.001)"><path class="a" d="M36.965,7.9a2.359,2.359,0,0,0-.535,1.649,1.226,1.226,0,0,1,.008.128v2.431a1.109,1.109,0,0,1-.351.809.172.172,0,0,0-.053.122v1.681a.165.165,0,0,0,.069.139,1.109,1.109,0,0,1,.464.681,7.474,7.474,0,0,0,1.243,2.691,1.118,1.118,0,0,1,.243.691v1.116a2.655,2.655,0,0,1-1.331,2.309l-3.6,2.045A2.282,2.282,0,0,0,32,26.383v.588H47.532v-.506a2.294,2.294,0,0,0-1.191-2.03l-3.854-2.012a2.633,2.633,0,0,1-1.409-2.353v-1.15a1.11,1.11,0,0,1,.263-.717c.088-.1.187-.24.3-.4a8.33,8.33,0,0,0,1.053-2.219,1.11,1.11,0,0,1,.719-.728.15.15,0,0,0,.09-.144V13.036a.172.172,0,0,0-.053-.122,1.109,1.109,0,0,1-.351-.809V9.674a.982.982,0,0,1,.009-.14A2.345,2.345,0,0,0,42.567,7.9a3.661,3.661,0,0,0-2.8-.9A3.661,3.661,0,0,0,36.965,7.9Z" transform="translate(2.392 -0.345)"/><path class="a" d="M8.766,61.157h47.7a1.109,1.109,0,0,0,1.109-1.109V30.555A19.937,19.937,0,0,1,23.319,19H18.75V42.3a3.328,3.328,0,0,1-3.328,3.328H9.07a7.942,7.942,0,0,0-8.053,7.247,7.766,7.766,0,0,0,7.749,8.285Z" transform="translate(-0.999 0.97)"/><path class="a" d="M9.07,44.282h6.352a1.109,1.109,0,0,0,1.109-1.109V12.109A1.109,1.109,0,0,0,15.422,11H8.766A7.775,7.775,0,0,0,1,18.766V48.084A10.4,10.4,0,0,1,9.07,44.282Z" transform="translate(-0.999 0.095)"/><path class="a" d="M52.547,1a1.109,1.109,0,0,0-1.109,1.109V4.328A1.1,1.1,0,0,1,50.4,5.423c-.016,0-.03.008-.045.009s-.018.006-.027.006H48.109a1.109,1.109,0,0,0,0,2.219h2.219a1.109,1.109,0,0,1,1.109,1.109v2.219a1.109,1.109,0,0,0,2.219,0V8.766a1.109,1.109,0,0,1,1.109-1.109h2.219a1.109,1.109,0,0,0,0-2.219H54.766a1.109,1.109,0,0,1-1.109-1.109V2.109A1.109,1.109,0,0,0,52.547,1Z" transform="translate(4.033 -0.999)"/><path class="a" d="M23,18.75a17.75,17.75,0,1,0,34.613-5.526,3.317,3.317,0,0,1-5.769-2.24V9.875H50.735a3.319,3.319,0,0,1-1.057-6.468A17.75,17.75,0,0,0,23,18.75Zm23.3-8.366v1.979a2.4,2.4,0,0,1,.4,1.331v1.681a2.37,2.37,0,0,1-1.059,1.985,10.425,10.425,0,0,1-1.188,2.353q-.09.132-.173.246v.777a.434.434,0,0,0,.214.386l3.855,2a4.475,4.475,0,0,1,2.385,3.994V28.31a1.523,1.523,0,0,1-1.513,1.534H32.279a1.523,1.523,0,0,1-1.513-1.53V27.037a4.5,4.5,0,0,1,2.248-3.923l3.6-2.045a.443.443,0,0,0,.205-.381v-.758a9.8,9.8,0,0,1-1.343-2.893,2.388,2.388,0,0,1-.675-1.664V13.69a2.4,2.4,0,0,1,.4-1.331V10.384A4.513,4.513,0,0,1,36.269,7.1,5.689,5.689,0,0,1,40.75,5.438,5.689,5.689,0,0,1,45.231,7.1,4.513,4.513,0,0,1,46.3,10.384Z" transform="translate(1.407 -0.999)"/></g></g></svg>