<svg xmlns="http://www.w3.org/2000/svg" width="29.97" height="29.97" viewBox="0 0 29.97 29.97"><defs><style>.a{fill:#fff;}</style></defs><path class="a" d="M29.64,3H6.33A3.329,3.329,0,0,0,3,6.33V29.64a3.329,3.329,0,0,0,3.33,3.33H29.64a3.329,3.329,0,0,0,3.33-3.33V6.33A3.329,3.329,0,0,0,29.64,3ZM26.393,13.846v.571a11.632,11.632,0,0,1-11.7,11.7,11.986,11.986,0,0,1-6.279-1.855h1a9.231,9.231,0,0,0,5.138-1.713A4.162,4.162,0,0,1,10.7,19.7a6.235,6.235,0,0,1,.714.143,3.135,3.135,0,0,0,1.142-.143,4.123,4.123,0,0,1-3.282-4,7.121,7.121,0,0,0,1.855.571A4.676,4.676,0,0,1,9.27,12.705a3.277,3.277,0,0,1,.571-2,11.584,11.584,0,0,0,8.42,4.281c0-.285-.143-.571-.143-1A4.142,4.142,0,0,1,22.257,9.85a3.888,3.888,0,0,1,3,1.284,6.928,6.928,0,0,0,2.569-1,4.172,4.172,0,0,1-1.855,2.283,7.807,7.807,0,0,0,2.426-.714A9.638,9.638,0,0,1,26.393,13.846Z" transform="translate(-3 -3)"/></svg>