<svg xmlns="http://www.w3.org/2000/svg" width="74.4" height="62" viewBox="0 0 74.4 62"><defs><style>.a{fill:#2842fa;fill-rule:evenodd;}</style></defs><g transform="translate(-8 -12)"><g transform="translate(8 12)"><path class="a" d="M44.547,21.725V15.647h6.526v6.078H48.186a2.132,2.132,0,0,0-.373-.034,2.323,2.323,0,0,0-.386.034Zm23.122,18.23,2.984,0v6.078H67.588a.77.77,0,0,0-.2-.015,2.15,2.15,0,0,0-.324.022l-2.939-.007V39.961h3.065a.777.777,0,0,0,.19.012,2.287,2.287,0,0,0,.287-.017ZM78.484,64.275v6.078H71.958V64.275h3.065a.959.959,0,0,0,.191.012c.1,0,.19-.007.287-.017ZM44.547,70.353H38.021V64.275h3.065a.957.957,0,0,0,.19.012c.1,0,.191-.007.287-.017l2.984,0Zm-16.036-30.4,2.984,0v6.078H28.608a2.134,2.134,0,0,0-.373-.034,2.319,2.319,0,0,0-.386.034H24.968V39.961h3.065a.779.779,0,0,0,.191.012,2.286,2.286,0,0,0,.287-.017ZM18.442,64.275v6.078H11.916V64.275h3.065a.957.957,0,0,0,.19.012c.1,0,.191-.007.287-.017ZM80.46,60.627H77.179V55.157a1.9,1.9,0,0,0-1.958-1.823H69.342V49.686h3.268a1.916,1.916,0,0,0,1.95-1.673q0-.017.008-9.876a1.973,1.973,0,0,0-1.94-1.823H69.347V30.843a1.9,1.9,0,0,0-1.958-1.824H49.768V25.373H52.94c.19,0,.287,0,.321,0a1.927,1.927,0,0,0,1.728-1.819V13.824A1.973,1.973,0,0,0,53.05,12H42.589a1.9,1.9,0,0,0-1.958,1.824v9.725a1.833,1.833,0,0,0,1.355,1.731,2.371,2.371,0,0,0,.577.093h3.289V29.02H28.232a1.9,1.9,0,0,0-1.958,1.824v5.471H23.011a1.9,1.9,0,0,0-1.958,1.823v9.726a1.925,1.925,0,0,0,1.958,1.823h3.263v3.647H15.179a1.9,1.9,0,0,0-1.958,1.823v5.471H9.958A1.9,1.9,0,0,0,8,62.451v9.725A1.924,1.924,0,0,0,9.958,74H20.4a1.9,1.9,0,0,0,1.95-1.665q0-.017.008-9.884a1.972,1.972,0,0,0-1.94-1.824H17.137V56.98H39.326v3.647H36.063a1.9,1.9,0,0,0-1.958,1.824v9.725A1.943,1.943,0,0,0,36.063,74H46.505a1.916,1.916,0,0,0,1.95-1.673q0-.017.008-9.876a1.973,1.973,0,0,0-1.94-1.824H43.242V55.157a1.9,1.9,0,0,0-1.958-1.823H30.189V49.686h3.263a1.92,1.92,0,0,0,1.95-1.673q0-.017.008-9.876a1.973,1.973,0,0,0-1.94-1.823H30.189V32.667H65.432v3.647H62.168a1.9,1.9,0,0,0-1.958,1.823v9.726a1.941,1.941,0,0,0,1.958,1.823h3.258v5.471a1.9,1.9,0,0,0,1.958,1.824h5.879v3.647H70a1.9,1.9,0,0,0-1.958,1.824v9.725A1.939,1.939,0,0,0,70,74H80.442a1.914,1.914,0,0,0,1.95-1.673q0-.017.008-9.876A1.971,1.971,0,0,0,80.46,60.627Z" transform="translate(-8 -12)"/></g></g></svg>