<svg xmlns="http://www.w3.org/2000/svg" width="61" height="61.001" viewBox="0 0 61 61.001"><defs><style>.a{fill:#2842fa;}</style></defs><g transform="translate(-5 -5)"><g transform="translate(5 5)"><path class="a" d="M46.481,47.155a2.771,2.771,0,0,1-4.732-2.883L45.927,37.4h-3.4a2.706,2.706,0,0,1-2.4-1.4,2.823,2.823,0,0,1,.037-2.809L46.888,22.1a2.807,2.807,0,0,1,3.808-.924,2.74,2.74,0,0,1,.924,3.807L47.48,31.854h3.365a2.8,2.8,0,0,1,2.365,4.214Z" transform="translate(-16.203 -10.084)"/><path class="a" d="M33.947,54.083,17.015,65.5a2.667,2.667,0,0,1-.739.333.13.13,0,0,1-.074.037,2.385,2.385,0,0,1-.739.111,1.4,1.4,0,0,1-.554-.037,2.161,2.161,0,0,1-.518-.185,1.327,1.327,0,0,1-.333-.148l-.111-.111a1.331,1.331,0,0,1-.518-.407,2.37,2.37,0,0,1-.3-.333,1.389,1.389,0,0,1-.222-.481,2.156,2.156,0,0,1-.185-.517c0-.185-.037-.369-.037-.554v-9.5A10.38,10.38,0,0,1,5,43.734V15.349A10.381,10.381,0,0,1,15.462,5H55.5A10.46,10.46,0,0,1,66,15.349V43.734A10.46,10.46,0,0,1,55.5,54.083ZM18.235,58,31.507,49.02a2.655,2.655,0,0,1,1.553-.481H55.5a5.01,5.01,0,0,0,3.512-1.4,4.779,4.779,0,0,0,1.442-3.4V15.35a4.9,4.9,0,0,0-4.954-4.8H15.462a4.844,4.844,0,0,0-4.917,4.8V43.735a4.9,4.9,0,0,0,4.695,4.842.051.051,0,0,1,.074,0h.148c.185,0,.369.037.554.037a2,2,0,0,1,.776.3,1.673,1.673,0,0,1,.628.481,2.4,2.4,0,0,1,.628,1,2.064,2.064,0,0,1,.148.443c0,.148.037.333.037.481V58Z" transform="translate(-5 -5)"/></g></g></svg>