<svg xmlns="http://www.w3.org/2000/svg" width="29.96" height="29.96" viewBox="0 0 29.96 29.96"><defs><style>.a{fill:#fff;}</style></defs><path class="a" d="M2.731,0A2.745,2.745,0,0,0,0,2.731v24.5A2.745,2.745,0,0,0,2.731,29.96h24.5a2.745,2.745,0,0,0,2.731-2.731V2.731A2.745,2.745,0,0,0,27.229,0Zm8.738,4.876h5.5l-1.756.858H13.732A4.784,4.784,0,0,1,15.6,9.362c0,2-1.141,2.872-2.263,3.745a1.893,1.893,0,0,0-.741,1.248,1.267,1.267,0,0,0,.741,1.131l1.014.741c1.121,1,2.263,1.872,2.263,3.745,0,2.5-2.526,4.993-7.022,4.993-3.872,0-5.734-1.872-5.734-3.745a3.872,3.872,0,0,1,2.146-3.238,12.218,12.218,0,0,1,5.11-1.248,2.8,2.8,0,0,1-.741-1.756,2,2,0,0,1,.234-1.014H9.753c-3.121.127-4.759-1.975-4.759-4.1A4.6,4.6,0,0,1,6.749,6.359,7.247,7.247,0,0,1,11.469,4.876Zm-1.6.858A2.463,2.463,0,0,0,8,6.632a3.135,3.135,0,0,0-.624,1.99c0,1.746.985,4.72,3.355,4.72A3.491,3.491,0,0,0,12.6,12.6a2.562,2.562,0,0,0,.624-1.873C13.224,8.729,12.117,5.734,9.87,5.734ZM21.221,9.987h2.5v3.745h3.745v2.5H23.718v3.745h-2.5V16.228H17.477v-2.5h3.745Zm-10.1,7.607a10.521,10.521,0,0,0-2.887.39,2.947,2.947,0,0,0-2.224,2.731c0,1.872,1.848,3.238,4.72,3.238,2.623,0,4.018-1.224,4.018-2.848,0-1.375-.887-2.136-2.887-3.511Z" transform="translate(0)"/></svg>