<svg xmlns="http://www.w3.org/2000/svg" width="61.997" height="61.99" viewBox="0 0 61.997 61.99"><defs><style>.a{fill:#2842fa;}</style></defs><g transform="translate(-2 -2)"><path class="a" d="M45.392,34.738a3.1,3.1,0,0,0-3.1,3.1V55.69H8.2V9.2H20.6a3.1,3.1,0,1,0,0-6.2H8.2A6.2,6.2,0,0,0,2,9.2V55.69a6.2,6.2,0,0,0,6.2,6.2H42.293a6.2,6.2,0,0,0,6.2-6.2V37.838A3.1,3.1,0,0,0,45.392,34.738Z" transform="translate(0 2.101)"/><path class="a" d="M46.722,44.339,36.4,28.5A15.5,15.5,0,1,0,25.521,33a15.187,15.187,0,0,0,5.7-1.116l10.29,15.869a3.112,3.112,0,0,0,5.207-3.409ZM16.223,17.5a9.3,9.3,0,1,1,9.3,9.3,9.3,9.3,0,0,1-9.3-9.3Z" transform="translate(16.771 0)"/><path class="a" d="M24.6,16H9.1a3.1,3.1,0,1,0,0,6.2H24.6a3.1,3.1,0,1,0,0-6.2Z" transform="translate(8.398 29.393)"/><path class="a" d="M24.6,12H9.1a3.1,3.1,0,1,0,0,6.2H24.6a3.1,3.1,0,0,0,0-6.2Z" transform="translate(8.398 20.995)"/></g></svg>