<svg xmlns="http://www.w3.org/2000/svg" width="80.631" height="61.456" viewBox="0 0 80.631 61.456"><defs><style>.a{fill:#2842fa;}</style></defs><g transform="translate(-2.5 -13.745)"><g transform="translate(2.5 13.745)"><path class="a" d="M87.45,19.814,76.508,14.3a5.017,5.017,0,0,0-3.986-.254,5.189,5.189,0,0,0-3.053,2.629l-17.9,35.709a4.517,4.517,0,0,0-.509,2.036L50.3,69.687a5.258,5.258,0,0,0,2.884,4.919,5.778,5.778,0,0,0,2.375.594,5.269,5.269,0,0,0,3.308-1.187l11.79-9.839a5.448,5.448,0,0,0,1.357-1.7l17.9-35.709A5.34,5.34,0,0,0,87.45,19.814Zm-12.723.763,8.736,4.411L81.852,28.3l-8.821-4.411ZM56.745,67.312l.339-7.973,5.768,2.884ZM67.348,57.3l-8.821-4.411,11.62-23.24,8.821,4.411Z" transform="translate(-9.756 -13.745)"/><path class="a" d="M20.923,24.046H52.476a3.223,3.223,0,1,0,0-6.446H20.923a3.223,3.223,0,1,0,0,6.446Z" transform="translate(-4.808 -14.33)"/><path class="a" d="M48.4,39.723A3.222,3.222,0,0,0,45.181,36.5H20.923a3.223,3.223,0,1,0,0,6.446H45.181A3.222,3.222,0,0,0,48.4,39.723Z" transform="translate(-4.808 -17.199)"/><path class="a" d="M38.056,55.4H20.923a3.223,3.223,0,1,0,0,6.446H38.056a3.223,3.223,0,1,0,0-6.446Z" transform="translate(-4.808 -20.069)"/><path class="a" d="M37.208,74.3H20.923a3.223,3.223,0,0,0,0,6.446h16.2a3.222,3.222,0,0,0,3.223-3.223A3.1,3.1,0,0,0,37.208,74.3Z" transform="translate(-4.808 -22.938)"/><path class="a" d="M8.013,17.6H5.723a3.223,3.223,0,1,0,0,6.446h2.29a3.223,3.223,0,1,0,0-6.446Z" transform="translate(-2.5 -14.33)"/><path class="a" d="M8.013,36.5H5.723a3.223,3.223,0,1,0,0,6.446h2.29a3.223,3.223,0,1,0,0-6.446Z" transform="translate(-2.5 -17.199)"/><path class="a" d="M8.013,55.4H5.723a3.223,3.223,0,1,0,0,6.446h2.29a3.223,3.223,0,1,0,0-6.446Z" transform="translate(-2.5 -20.069)"/><path class="a" d="M8.013,74.3H5.723a3.223,3.223,0,0,0,0,6.446h2.29a3.223,3.223,0,0,0,0-6.446Z" transform="translate(-2.5 -22.938)"/></g></g></svg>