<svg xmlns="http://www.w3.org/2000/svg" width="29.97" height="29.97" viewBox="0 0 29.97 29.97"><defs><style>.a{fill:#fff;}</style></defs><path class="a" d="M31.245,4H6.725A2.724,2.724,0,0,0,4,6.725V31.245A2.724,2.724,0,0,0,6.725,33.97H20.347V21.709H16.26V17.623h4.087V15.428c0-4.155,2.024-5.979,5.478-5.979a19.994,19.994,0,0,1,2.942.178v3.908H26.412c-1.466,0-1.978.774-1.978,2.34v1.746h4.3l-.583,4.087H24.434V33.97h6.811a2.724,2.724,0,0,0,2.725-2.725V6.725A2.725,2.725,0,0,0,31.245,4Z" transform="translate(-4 -4)"/></svg>