<svg xmlns="http://www.w3.org/2000/svg" xmlns:xlink="http://www.w3.org/1999/xlink" width="14" height="14" viewBox="0 0 14 14"><defs><style>.a{fill:#fff;}.b{clip-path:url(#a);}.c{fill:#f44336;}.d{fill:#3f51b5;}</style><clipPath id="a"><circle class="a" cx="7" cy="7" r="7" transform="translate(14 7)"/></clipPath></defs><g class="b" transform="translate(-14 -7)"><g transform="translate(12.105 6.862)"><path class="a" d="M2,10H25.037V24.138H2Z" transform="translate(-1.998 -10)"/><path class="c" d="M2,10H25.039v1.571H2Zm0,3.142H25.039v1.571H2Zm0,3.142H25.039v1.571H2Zm0,3.142H25.039V21H2Zm0,3.142H25.039v1.571H2Z" transform="translate(-1.999 -10)"/><path class="d" d="M2,10H13v7.854H2Z" transform="translate(-1.999 -10)"/><g transform="translate(0.394 1.047)"><path class="a" d="M3.535,12l.242.517.543.083-.393.4.093.568L3.535,13.3l-.486.268L3.143,13l-.393-.4.543-.083ZM5.63,12l.242.517.543.083-.393.4.093.568L5.63,13.3l-.486.268L5.237,13l-.393-.4.543-.083Zm2.094,0,.242.517.543.083-.393.4.093.568L7.724,13.3l-.486.268L7.332,13l-.393-.4.543-.083Zm2.094,0,.242.517.543.083-.393.4.093.568L9.819,13.3l-.486.268L9.426,13l-.393-.4.543-.083Zm1.964,0,.242.517.543.083-.393.4.093.568-.486-.268-.486.268L11.39,13,11,12.6l.543-.083ZM3.535,16.189l.242.517.543.083-.393.4.093.568-.486-.268-.486.268.093-.568-.393-.4.543-.083Zm2.094,0,.242.517.543.083-.393.4.093.568-.486-.268-.486.268.093-.568-.393-.4.543-.083Zm2.094,0,.242.517.543.083-.393.4.093.568-.486-.268-.486.268.093-.568-.393-.4.543-.083Zm2.094,0,.242.517.543.083-.393.4.093.568-.486-.268-.486.268.093-.568-.393-.4.543-.083Zm1.964,0,.242.517.543.083-.393.4.093.568-.486-.268-.486.268.093-.568-.393-.4.543-.083ZM4.059,14.094l.242.517.543.083-.393.4.093.568L4.059,15.4l-.486.268.093-.568-.393-.4.543-.083Zm2.094,0,.242.517.543.083-.393.4.093.568L6.154,15.4l-.486.268.093-.568-.393-.4.543-.083Zm2.094,0,.242.517.543.083-.393.4.093.568L8.248,15.4l-.486.268.093-.568-.393-.4.543-.083Zm2.094,0,.242.517.543.083-.393.4.093.568-.486-.268-.486.268L9.95,15.1l-.393-.4.543-.083Zm1.964,0,.242.517.543.083-.393.4.093.568-.486-.268-.486.268.093-.568-.393-.4.543-.083Z" transform="translate(-2.75 -12)"/></g></g></g></svg>