<svg xmlns="http://www.w3.org/2000/svg" width="74.593" height="62.14" viewBox="0 0 74.593 62.14"><defs><style>.a{fill:#2842fa;}</style></defs><g transform="translate(-2.5 -10.42)"><path class="a" d="M39.885,50.8A11.385,11.385,0,1,0,51.271,62.185,11.385,11.385,0,0,0,39.885,50.8Zm5.5,12.956h-5.5a1.57,1.57,0,0,1-1.57-1.57v-9.03a1.57,1.57,0,1,1,3.141,0v7.459h3.926a1.57,1.57,0,0,1,0,3.141Z" transform="translate(-5.585 -8.674)"/><path class="a" d="M43.354,20.3,33.931,10.42H12.857v6.038H7.093v7.216H2.5V72.56H64.4V67.692H71.33v-6.03h5.763V20.3ZM34.3,68.037A14.526,14.526,0,1,1,48.826,53.511,14.526,14.526,0,0,1,34.3,68.037ZM68.982,65.36H64.4V33.544H31.324L21.9,23.666H9.433v-4.86h17.73l9.422,9.878h32.4Zm5.763-6.038H71.33V26.344H37.567l-9.422-9.878H15.2v-3.7h17.73l9.43,9.886h32.4Z"/></g></svg>