<svg xmlns="http://www.w3.org/2000/svg" width="66.981" height="62.1" viewBox="0 0 66.981 62.1"><defs><style>.a{fill:#2842fa;}</style></defs><g transform="translate(-9.5 -5.9)"><g transform="translate(9.5 5.9)"><path class="a" d="M49.163,64.476H6.095V13.09h4.793v1.833a1.762,1.762,0,0,0,3.524,0V13.09h6.414v1.833a1.762,1.762,0,0,0,3.524,0V13.09h6.414v1.833a1.762,1.762,0,0,0,3.524,0V13.09H40.7v1.833a1.762,1.762,0,0,0,3.524,0V13.09h4.793V38.818l3.595-3.595V12.6a3.069,3.069,0,0,0-3.1-3.031H44.229v-1.9A1.745,1.745,0,0,0,42.467,5.9a1.632,1.632,0,0,0-1.621,1.762V9.495H34.431V7.662A1.745,1.745,0,0,0,32.669,5.9a1.806,1.806,0,0,0-1.833,1.762V9.495H24.422V7.662a1.762,1.762,0,1,0-3.524,0V9.495H14.483V7.662A1.745,1.745,0,0,0,12.721,5.9a1.806,1.806,0,0,0-1.833,1.762V9.495H5.6a3.069,3.069,0,0,0-3.1,3.031V64.969A3.069,3.069,0,0,0,5.6,68H49.657a3.069,3.069,0,0,0,3.1-3.031V57.356l-3.595,3.595Z" transform="translate(-2.5 -5.9)"/><path class="a" d="M19.662,30.724H44.615a1.762,1.762,0,0,0,0-3.524H19.662a1.762,1.762,0,1,0,0,3.524Z" transform="translate(-7.045 -12.186)"/><path class="a" d="M19.662,46.024H44.615a1.762,1.762,0,0,0,0-3.524H19.662a1.762,1.762,0,1,0,0,3.524Z" transform="translate(-7.045 -16.701)"/><path class="a" d="M46.448,59.462A1.745,1.745,0,0,0,44.686,57.7H19.662a1.762,1.762,0,1,0,0,3.524H44.615A1.761,1.761,0,0,0,46.448,59.462Z" transform="translate(-7.045 -21.187)"/><path class="a" d="M17.9,74.733a1.745,1.745,0,0,0,1.762,1.762H40.174L40.95,72.9H19.662A1.806,1.806,0,0,0,17.9,74.733Z" transform="translate(-7.045 -25.673)"/><rect class="a" width="19.948" height="8.459" transform="matrix(0.707, -0.707, 0.707, 0.707, 41.666, 43.027)"/><path class="a" d="M55.637,79.034l5.428-1.269a1.441,1.441,0,0,0,.634-.352l1.621-1.621L57.329,69.8l-1.621,1.621a1.363,1.363,0,0,0-.352.634l-1.269,5.428A1.3,1.3,0,0,0,55.637,79.034Z" transform="translate(-17.714 -24.758)"/><path class="a" d="M93.311,44.074l-4.229-4.229a1.234,1.234,0,0,0-1.762,0l-2.82,2.82,5.992,5.991,2.82-2.82A1.234,1.234,0,0,0,93.311,44.074Z" transform="translate(-26.7 -15.809)"/></g></g></svg>