<svg xmlns="http://www.w3.org/2000/svg" width="128" height="128" viewBox="0 0 128 128"><defs><style>.a{fill:none;}.b{fill:#2842fa;}</style></defs><g transform="translate(-512 -232)"><rect class="a" width="128" height="128" transform="translate(512 232)"/><path class="b" d="M64.673,2A11.131,11.131,0,1,0,75.886,13.13,11.183,11.183,0,0,0,64.673,2ZM14.213,27.043a11.131,11.131,0,1,0,11.213,11.13A11.183,11.183,0,0,0,14.213,27.043Zm100.919,0a11.131,11.131,0,1,0,11.213,11.13A11.183,11.183,0,0,0,115.132,27.043ZM61.869,29.576V49.56a16.641,16.641,0,0,1,2.8-.255,16.935,16.935,0,0,1,2.8.25V29.576a15.85,15.85,0,0,1-5.607,0ZM99.287,43.723l-21.5,11.859a16.581,16.581,0,0,1,2.721,4.864l21.5-11.853A16.7,16.7,0,0,1,99.287,43.723Zm-69.245.055A16.7,16.7,0,0,1,27.3,48.63l21.457,12a16.589,16.589,0,0,1,2.672-4.891ZM64.673,54.87A11.131,11.131,0,1,0,75.886,66,11.187,11.187,0,0,0,64.673,54.87ZM48.8,71.467,27.321,83.386a16.661,16.661,0,0,1,2.726,4.864L51.5,76.348A16.672,16.672,0,0,1,48.8,71.467Zm31.663.228a16.6,16.6,0,0,1-1.177,2.538.156.156,0,0,0-.011.022A16.635,16.635,0,0,1,77.7,76.533L99.276,88.3a16.687,16.687,0,0,1,2.716-4.87ZM61.869,82.446v19.984a15.849,15.849,0,0,1,5.607,0V82.446a15.85,15.85,0,0,1-5.607,0Zm-47.656.25a11.131,11.131,0,1,0,11.213,11.13A11.183,11.183,0,0,0,14.213,82.7Zm100.919,0a11.131,11.131,0,1,0,11.213,11.13A11.183,11.183,0,0,0,115.132,82.7Zm-50.46,25.043a11.131,11.131,0,1,0,11.213,11.13A11.183,11.183,0,0,0,64.673,107.739Z" transform="translate(509 230)"/></g></svg>