<svg xmlns="http://www.w3.org/2000/svg" width="46.845" height="62.004" viewBox="0 0 46.845 62.004"><defs><style>.a{fill:#2842fa;}</style></defs><g transform="translate(-16 -4.996)"><g transform="translate(16 4.996)"><path class="a" d="M17.851,5A2.141,2.141,0,0,0,16,7.065V64.933A2.148,2.148,0,0,0,18.067,67H60.779a2.148,2.148,0,0,0,2.067-2.067V18.088a2.092,2.092,0,0,0-.6-1.464L51.22,5.6A2.092,2.092,0,0,0,49.756,5H18.067A2.066,2.066,0,0,0,17.851,5Zm2.282,4.133H47v9.645a2.148,2.148,0,0,0,2.067,2.067h9.645V62.867H20.133Zm31,2.217,5.361,5.36H51.134ZM24.74,20.844a2.07,2.07,0,1,0,.215,4.133H39.423a2.067,2.067,0,1,0,0-4.133H24.956A2.078,2.078,0,0,0,24.74,20.844Zm0,7.578a2.07,2.07,0,1,0,.215,4.133H53.89a2.067,2.067,0,1,0,0-4.133H24.956A2.077,2.077,0,0,0,24.74,28.421Zm0,7.578a2.07,2.07,0,1,0,.215,4.133H53.89a2.067,2.067,0,1,0,0-4.133H24.956A2.078,2.078,0,0,0,24.74,36Zm0,7.578a2.07,2.07,0,1,0,.215,4.133H53.89a2.067,2.067,0,1,0,0-4.133H24.956A2.078,2.078,0,0,0,24.74,43.577Zm0,7.578a2.07,2.07,0,1,0,.215,4.133H53.89a2.067,2.067,0,1,0,0-4.133H24.956A2.076,2.076,0,0,0,24.74,51.155Z" transform="translate(-16 -4.996)"/></g></g></svg>