<svg xmlns="http://www.w3.org/2000/svg" width="128" height="128" viewBox="0 0 128 128"><defs><style>.a{fill:none;}.b{fill:blue;}</style></defs><g transform="translate(-512 -232)"><rect class="a" width="128" height="128" transform="translate(512 232)"/><g transform="translate(502.2 236.036)"><path class="b" d="M11.148,5A8.158,8.158,0,0,0,3,13.148V118.455a2.906,2.906,0,0,0,2.909,2.909H128.091A2.906,2.906,0,0,0,131,118.455V13.148A8.158,8.158,0,0,0,122.852,5ZM8.818,28.273H125.182v87.273H8.818ZM26.273,45.727V60.273H20.455a2.906,2.906,0,0,0-2.909,2.909v8.727a2.906,2.906,0,0,0,2.909,2.909H37.909a2.906,2.906,0,0,0,2.909-2.909V63.182a2.906,2.906,0,0,0-2.909-2.909H32.091V45.727Zm37.818,0V71.909H58.273a2.906,2.906,0,0,0-2.909,2.909v8.727a2.906,2.906,0,0,0,2.909,2.909H75.727a2.906,2.906,0,0,0,2.909-2.909V74.818a2.906,2.906,0,0,0-2.909-2.909H69.909V45.727Zm37.818,0V63.182H96.091a2.906,2.906,0,0,0-2.909,2.909v8.727a2.906,2.906,0,0,0,2.909,2.909h17.455a2.906,2.906,0,0,0,2.909-2.909V66.091a2.906,2.906,0,0,0-2.909-2.909h-5.818V45.727ZM26.273,80.636V101h5.818V80.636Zm75.636,2.909V101h5.818V83.545ZM64.091,92.273V101h5.818V92.273Z" transform="translate(6.8 2.6)"/></g></g></svg>