<svg xmlns="http://www.w3.org/2000/svg" width="71.848" height="61.8" viewBox="0 0 71.848 61.8"><defs><style>.a{fill:#2842fa;}</style></defs><g transform="translate(-2.5 -9.1)"><g transform="translate(2.5 9.1)"><path class="a" d="M8.317,23.757,30.68,34.711a3.559,3.559,0,0,0,1.284.3,2.483,2.483,0,0,0,1.284-.3L55.612,23.757V34.409a19.266,19.266,0,0,1,5.893,0V12.046A2.95,2.95,0,0,0,58.558,9.1H5.446A2.95,2.95,0,0,0,2.5,12.046V47.933a2.95,2.95,0,0,0,2.946,2.946H38.084a20.251,20.251,0,0,1,2.267-5.817H8.317Zm0-8.839H55.612v2.342L31.965,28.894,8.317,17.259Z" transform="translate(-2.5 -9.1)"/><path class="a" d="M71.639,49.4a15.677,15.677,0,1,0,15.79,15.639A15.67,15.67,0,0,0,71.639,49.4Zm-1.662,7.177a2.459,2.459,0,0,1,1.738-.755,2.273,2.273,0,0,1,2.267,2.266v.3l-1.209,9.595a5.832,5.832,0,0,0-1.133-.151,4.459,4.459,0,0,0-1.058.151L69.372,58.39A2.23,2.23,0,0,1,69.977,56.577Zm1.662,17.754a2.342,2.342,0,1,1,2.342-2.342A2.354,2.354,0,0,1,71.639,74.332Z" transform="translate(-15.581 -18.953)"/></g></g></svg>