<svg xmlns="http://www.w3.org/2000/svg" width="49.581" height="62" viewBox="0 0 49.581 62"><defs><style>.a{fill:#2842fa;}</style></defs><g transform="translate(-23.5 -11)"><g transform="translate(23.5 11)"><path class="a" d="M47.048,70.615H25.885V25.8H38.3V13.385H63.244V51.936a1.192,1.192,0,1,0,2.385,0V11H36.619l-.348.348,0,0L23.851,23.767l0,0-.347.348V73H47.048a1.192,1.192,0,0,0,0-2.385ZM35.92,15.071V23.42H27.571Z" transform="translate(-23.5 -11)"/><g transform="translate(24.84 47.196)"><path class="a" d="M60.91,82.7A6.16,6.16,0,1,1,65.265,72.18a1.192,1.192,0,0,1-1.686,1.686,3.776,3.776,0,1,0,0,5.338,1.192,1.192,0,0,1,1.686,1.686A6.116,6.116,0,0,1,60.91,82.7Z" transform="translate(-54.75 -70.375)"/></g><g transform="translate(29.808 52.163)"><path class="a" d="M74.612,79.01H62.192a1.192,1.192,0,1,1,0-2.385h12.42a1.192,1.192,0,0,1,0,2.385Z" transform="translate(-61 -76.625)"/></g><g transform="translate(38.715 47.196)"><path class="a" d="M76.91,82.692a6.139,6.139,0,0,1-4.355-1.8,1.192,1.192,0,1,1,1.686-1.686,3.777,3.777,0,1,0,0-5.339,1.192,1.192,0,0,1-1.686-1.686A6.159,6.159,0,1,1,76.91,82.692Z" transform="translate(-72.206 -70.375)"/></g></g></g></svg>