<svg xmlns="http://www.w3.org/2000/svg" width="106" height="110" viewBox="0 0 106 110"><defs><style>.a{fill:#273c8e;}</style></defs><path class="a" d="M56,2a9.565,9.565,0,1,0,9.636,9.565A9.611,9.611,0,0,0,56,2ZM12.636,23.522a9.565,9.565,0,1,0,9.636,9.565A9.611,9.611,0,0,0,12.636,23.522Zm86.727,0A9.565,9.565,0,1,0,109,33.087,9.611,9.611,0,0,0,99.364,23.522ZM53.591,25.7V42.872A14.3,14.3,0,0,1,56,42.652a14.554,14.554,0,0,1,2.409.215V25.7a13.621,13.621,0,0,1-4.818,0ZM85.747,37.855,67.274,48.047a14.249,14.249,0,0,1,2.339,4.18L88.085,42.04A14.354,14.354,0,0,1,85.747,37.855ZM26.239,37.9a14.35,14.35,0,0,1-2.353,4.171l18.44,10.313a14.256,14.256,0,0,1,2.3-4.2ZM56,47.435A9.565,9.565,0,1,0,65.636,57,9.614,9.614,0,0,0,56,47.435ZM42.359,61.7,23.9,71.941a14.318,14.318,0,0,1,2.343,4.18L44.679,65.893A14.327,14.327,0,0,1,42.359,61.7Zm27.21.2a14.271,14.271,0,0,1-1.012,2.181.134.134,0,0,0-.009.019A14.3,14.3,0,0,1,67.2,66.052L85.737,76.168a14.341,14.341,0,0,1,2.334-4.185ZM53.591,71.133V88.306a13.62,13.62,0,0,1,4.818,0V71.133a13.621,13.621,0,0,1-4.818,0Zm-40.955.215a9.565,9.565,0,1,0,9.636,9.565A9.611,9.611,0,0,0,12.636,71.348Zm86.727,0A9.565,9.565,0,1,0,109,80.913,9.611,9.611,0,0,0,99.364,71.348ZM56,92.87a9.565,9.565,0,1,0,9.636,9.565A9.611,9.611,0,0,0,56,92.87Z" transform="translate(-3 -2)"/></svg>