<svg xmlns="http://www.w3.org/2000/svg" width="73.5" height="62.127" viewBox="0 0 73.5 62.127"><defs><style>.a{fill:#2842fa;}</style></defs><g transform="translate(-2.5 -9.8)"><g transform="translate(2.5 9.8)"><path class="a" d="M71.2,9.8H7.3a4.821,4.821,0,0,0-4.8,4.8V67.13a4.821,4.821,0,0,0,4.8,4.8H71.2a4.821,4.821,0,0,0,4.8-4.8V14.674A4.838,4.838,0,0,0,71.2,9.8ZM25.4,14.752a2.321,2.321,0,1,1-2.321,2.321A2.38,2.38,0,0,1,25.4,14.752Zm-7.2,0a2.321,2.321,0,1,1-2.321,2.321A2.279,2.279,0,0,1,18.206,14.752Zm-7.273,0a2.321,2.321,0,1,1-2.321,2.321A2.328,2.328,0,0,1,10.933,14.752Zm59.109,51.3H8.457V24.577H70.043V66.047Z" transform="translate(-2.5 -9.8)"/><path class="a" d="M77.251,44.85a8.728,8.728,0,0,0-8.588-7.35,8.944,8.944,0,0,0-2.863.542l3.714,6.886h7.737Z" transform="translate(-16.826 -16.069)"/><path class="a" d="M66.92,55.528a8.668,8.668,0,0,0,8.588-7.35H66.92a1.465,1.465,0,0,1-1.238-.7l-4.1-7.582A8.679,8.679,0,0,0,66.92,55.528Z" transform="translate(-15.083 -16.612)"/><path class="a" d="M20.782,55.5a1.645,1.645,0,0,0,1.161-.542l5.338-7.118,4.41,3.249a1.343,1.343,0,0,0,1.083.232,1.435,1.435,0,0,0,.928-.542l5.261-7.118,1.47,1.083a.926.926,0,0,0,1.083.077,1.147,1.147,0,0,0,.619-.928l.232-5.8a1.108,1.108,0,0,0-.387-.851,1.023,1.023,0,0,0-.928-.155l-5.493,1.857a1.115,1.115,0,0,0-.7.851,1.007,1.007,0,0,0,.387,1.006l1.47,1.083L32.232,48l-4.41-3.327a1.343,1.343,0,0,0-1.083-.232,1.435,1.435,0,0,0-.928.542l-6.189,8.278a1.467,1.467,0,0,0,.309,2.012A1.56,1.56,0,0,0,20.782,55.5Z" transform="translate(-6.314 -15.965)"/><path class="a" d="M20.306,71.982h3.946a1.024,1.024,0,0,0,1.006-1.006V65.406A1.024,1.024,0,0,0,24.252,64.4H20.306A1.024,1.024,0,0,0,19.3,65.406v5.648A1.01,1.01,0,0,0,20.306,71.982Z" transform="translate(-6.302 -22.157)"/><path class="a" d="M35.752,59.4H31.806A1.024,1.024,0,0,0,30.8,60.406v9.516a1.024,1.024,0,0,0,1.006,1.006h3.946a1.024,1.024,0,0,0,1.006-1.006V60.406A1.024,1.024,0,0,0,35.752,59.4Z" transform="translate(-8.905 -21.025)"/><path class="a" d="M43.206,54.3A1.024,1.024,0,0,0,42.2,55.306V68.768a1.024,1.024,0,0,0,1.006,1.006h3.946a1.024,1.024,0,0,0,1.006-1.006V55.306A1.024,1.024,0,0,0,47.152,54.3Z" transform="translate(-11.485 -19.871)"/><path class="a" d="M59.206,72.457H74.6a1.024,1.024,0,0,0,1.006-1.006V67.506A1.024,1.024,0,0,0,74.6,66.5h-15.4A1.024,1.024,0,0,0,58.2,67.506v4.023A.916.916,0,0,0,59.206,72.457Z" transform="translate(-15.106 -22.632)"/></g></g></svg>