<svg xmlns="http://www.w3.org/2000/svg" width="56.3" height="62.127" viewBox="0 0 56.3 62.127"><defs><style>.a{fill:#2842fa;}</style></defs><g transform="translate(-7 -2.5)"><path class="a" d="M58.718,10.749h0c-12.962-1.244-20.294-7-20.294-7.07a5.045,5.045,0,0,0-6.481,0c-.065.065-7.4,5.826-20.36,7.07A5.052,5.052,0,0,0,7,15.79C7,52.45,32.073,63.776,33.121,64.234a5.439,5.439,0,0,0,4.059,0C38.227,63.776,63.3,52.45,63.3,15.79A5.052,5.052,0,0,0,58.718,10.749ZM35.085,59.782a34.931,34.931,0,0,1-9.82-7.267l.655-5.7a6.22,6.22,0,0,1,6.154-5.5h6.088a6.172,6.172,0,0,1,6.154,5.5l.655,5.7A32.879,32.879,0,0,1,35.085,59.782Zm.065-24.353a5.7,5.7,0,1,1,5.7-5.7A5.7,5.7,0,0,1,35.15,35.429ZM49.356,47.278l-.131-1.047a11.182,11.182,0,0,0-6.677-8.9,10.6,10.6,0,1,0-18-7.594,10.518,10.518,0,0,0,3.208,7.594,11.086,11.086,0,0,0-6.677,8.9l-.131,1.047c-4.779-6.874-8.9-17.021-8.838-31.554,14.8-1.44,22.913-8.183,23.175-8.183.327.262,8.511,6.808,22.978,8.183l.131.131C58.39,30.323,54.2,40.47,49.356,47.278Z" transform="translate(0)"/></g></svg>