<svg xmlns="http://www.w3.org/2000/svg" width="90" height="90" viewBox="0 0 90 90"><defs><style>.a{fill:#0e75bb;}</style></defs><path class="a" d="M48,3A45,45,0,1,0,93,48,45,45,0,0,0,48,3ZM70.429,43.267l-.037.184c-.008.038-.015.071-.023.109L66.637,62.242a.088.088,0,0,1-.007.03l0,.011h0a5.623,5.623,0,0,1-5.5,4.466H42.052A12.807,12.807,0,0,1,33,63H29.25V38.625h1.144A7.5,7.5,0,0,0,37,34.676l3.5-11.561V18h1.961c3.75,0,6.476,3.278,6.476,7.5,0,3.172-1.875,11.25-1.875,11.25H64.875a5.522,5.522,0,0,1,5.539,6.5Z" transform="translate(-3 -3)"/></svg>