<svg xmlns="http://www.w3.org/2000/svg" width="63.059" height="61.2" viewBox="0 0 63.059 61.2"><defs><style>.a{fill:#2842fa;}</style></defs><g transform="translate(-2.5 -3.9)"><g transform="translate(2.5 3.9)"><path class="a" d="M58.124,3.9H9.934A7.422,7.422,0,0,0,2.5,11.334V57.666A7.422,7.422,0,0,0,9.934,65.1h48.19a7.422,7.422,0,0,0,7.434-7.434V11.334A7.422,7.422,0,0,0,58.124,3.9ZM9.934,7.75h6.837V11.6a4.04,4.04,0,0,0-2.19,3.651,4.115,4.115,0,1,0,8.231,0,4.246,4.246,0,0,0-2.19-3.651V7.75H32.1V11.6a4.04,4.04,0,0,0-2.19,3.651,4.115,4.115,0,1,0,6.04-3.651V7.75H47.438V11.6a4.04,4.04,0,0,0-2.19,3.651,4.115,4.115,0,1,0,8.231,0,4.246,4.246,0,0,0-2.19-3.651V7.75h6.837a3.569,3.569,0,0,1,3.584,3.584V22.287H6.35V11.334A3.569,3.569,0,0,1,9.934,7.75Zm48.19,53.5H9.934A3.569,3.569,0,0,1,6.35,57.666V26.136H61.709V57.666A3.569,3.569,0,0,1,58.124,61.25Z" transform="translate(-2.5 -3.9)"/><path class="a" d="M27.895,47.9H20.659A1.643,1.643,0,0,0,19,49.559v4.248a1.643,1.643,0,0,0,1.659,1.659h7.235a1.643,1.643,0,0,0,1.659-1.659V49.559A1.643,1.643,0,0,0,27.895,47.9Z" transform="translate(-8.048 -18.694)"/><path class="a" d="M50.928,47.9H43.759A1.643,1.643,0,0,0,42.1,49.559v4.248a1.643,1.643,0,0,0,1.659,1.659h7.235a1.643,1.643,0,0,0,1.659-1.659V49.559A1.7,1.7,0,0,0,50.928,47.9Z" transform="translate(-15.814 -18.694)"/><path class="a" d="M73.995,47.9H66.759A1.643,1.643,0,0,0,65.1,49.559v4.248a1.643,1.643,0,0,0,1.659,1.659h7.235a1.643,1.643,0,0,0,1.659-1.659V49.559A1.643,1.643,0,0,0,73.995,47.9Z" transform="translate(-23.548 -18.694)"/><path class="a" d="M27.895,68.2H20.659A1.643,1.643,0,0,0,19,69.859v4.248a1.643,1.643,0,0,0,1.659,1.659h7.235a1.643,1.643,0,0,0,1.659-1.659V69.859A1.686,1.686,0,0,0,27.895,68.2Z" transform="translate(-8.048 -25.519)"/><path class="a" d="M50.928,68.2H43.759A1.643,1.643,0,0,0,42.1,69.859v4.248a1.643,1.643,0,0,0,1.659,1.659h7.235a1.643,1.643,0,0,0,1.659-1.659V69.859A1.746,1.746,0,0,0,50.928,68.2Z" transform="translate(-15.814 -25.519)"/><path class="a" d="M73.995,68.2H66.759A1.643,1.643,0,0,0,65.1,69.859v4.248a1.643,1.643,0,0,0,1.659,1.659h7.235a1.643,1.643,0,0,0,1.659-1.659V69.859A1.686,1.686,0,0,0,73.995,68.2Z" transform="translate(-23.548 -25.519)"/></g></g></svg>