<svg xmlns="http://www.w3.org/2000/svg" width="128" height="128" viewBox="0 0 128 128"><defs><style>.a{fill:none;}.b{fill:blue;}</style></defs><g transform="translate(-512 -232)"><rect class="a" width="128" height="128" transform="translate(512 232)"/><path class="b" d="M68,4A64.077,64.077,0,0,0,4.089,64.637a6.1,6.1,0,1,0,12.174.631A51.809,51.809,0,0,1,109.9,37.524h-2.28a6.1,6.1,0,1,0,0,12.191H132V25.333a6.1,6.1,0,1,0-12.19,0v5.089A63.961,63.961,0,0,0,68,4ZM61.6,34.476l-1.524,9.75c-.914.3-2.133.915-3.048,1.22L48.8,39.655,39.655,48.8l5.488,7.619a10.948,10.948,0,0,0-1.22,3.357L34.476,61.3v12.8l9.446,1.524c.3.914.915,2.133,1.22,3.048l-5.488,8.226L48.8,96.035l8.232-5.482a14.852,14.852,0,0,0,3.351,1.22l1.22,9.75H74.4l1.524-9.75c.914-.3,2.133-.915,3.048-1.22L87.2,96.035l9.143-9.143L90.553,78.97a12.742,12.742,0,0,0,1.22-3.048l9.75-1.827V61.3l-9.75-1.524c-.3-.914-.915-2.133-1.22-3.048l5.482-8.232L87.2,39.655l-7.929,5.792a12.741,12.741,0,0,0-3.048-1.22L74.4,34.476ZM68,58.857A9.143,9.143,0,1,1,58.857,68,8.98,8.98,0,0,1,68,58.857Zm58.053,6.012a6.1,6.1,0,0,0-6.315,5.863,51.809,51.809,0,0,1-93.631,27.75h2.274a6.1,6.1,0,1,0,0-12.191L4,86.285v24.381a6.1,6.1,0,1,0,12.191,0v-5.089A64,64,0,0,0,131.91,71.363a6.1,6.1,0,0,0-5.857-6.494Z" transform="translate(508 228.001)"/></g></svg>