<svg xmlns="http://www.w3.org/2000/svg" width="128" height="120.339" viewBox="0 0 128 120.339"><defs><style>.a{fill:#2842fa;}</style></defs><g transform="translate(-9.8 -7.6)"><path class="a" d="M137.8,116.288v11.651H99.5V116.288a8.432,8.432,0,0,1,.16-2.075,1.2,1.2,0,0,1,.16-.8c0-.319.16-.638.16-.958a19,19,0,0,1,9.1-12.608A14.134,14.134,0,0,1,117.85,75.43h.8a6.547,6.547,0,0,1,1.756.16h.479a4.66,4.66,0,0,1,1.436.319h.319a15.152,15.152,0,0,1,3.352,1.436h0a14.153,14.153,0,0,1,7.022,12.13,14.469,14.469,0,0,1-4.469,10.374A18.982,18.982,0,0,1,137.8,116.288Zm-89.7-3.032c0-.319-.16-.638-.16-.958a19,19,0,0,0-9.1-12.608,14.134,14.134,0,0,0-8.778-24.419h-.8a6.547,6.547,0,0,0-1.756.16h-.479a4.66,4.66,0,0,0-1.436.319h-.319a15.151,15.151,0,0,0-3.352,1.436h0a14.153,14.153,0,0,0-7.022,12.13A14.469,14.469,0,0,0,19.376,99.69a19.05,19.05,0,0,0-9.576,16.6v11.651H48.1V116.288a8.432,8.432,0,0,0-.16-2.075C48.264,113.735,48.264,113.575,48.1,113.256ZM61.989,28.987a8.853,8.853,0,0,0,.958,1.277l.319.319a4.857,4.857,0,0,0,1.277,1.277,19.05,19.05,0,0,0-9.576,16.6V60.109h38.3V48.458a18.983,18.983,0,0,0-8.14-15.641h0L83.7,31.859l1.277-1.277.319-.319c.319-.479.638-.8.958-1.277v-.16a23.5,23.5,0,0,0,1.6-3.511h0a13.6,13.6,0,0,0,.479-3.671,14.045,14.045,0,1,0-28.09,0,10.994,10.994,0,0,0,1.756,7.342Zm-31.6,41.5A43.772,43.772,0,0,1,53.211,36.647,25.36,25.36,0,0,1,57.68,30.9a12.9,12.9,0,0,1-1.756-4.309A52.168,52.168,0,0,0,22.249,71.759a17.834,17.834,0,0,1,7.022-1.436A2.366,2.366,0,0,0,30.389,70.483Zm22.663,43.411c0,.8.16,1.6.16,2.394v6.544a52.1,52.1,0,0,0,41.5,0v-6.544a12.08,12.08,0,0,1,.16-2.394,44.132,44.132,0,0,1-41.815,0Zm64.479-43.411h1.117a16.741,16.741,0,0,1,7.022,1.436A51.916,51.916,0,0,0,91.994,26.752a24.46,24.46,0,0,1-1.756,4.309,22.284,22.284,0,0,1,4.469,5.746A43.5,43.5,0,0,1,117.531,70.483Z" transform="translate(0 0)"/></g></svg>