<svg xmlns="http://www.w3.org/2000/svg" width="37.22" height="61.634" viewBox="0 0 37.22 61.634"><defs><style>.a{fill:#2842fa;fill-rule:evenodd;}</style></defs><g transform="translate(-21.298 -3.474)"><path class="a" d="M37.316,3.475a.832.832,0,0,0-.82.843v6.413a.832.832,0,1,0,1.663,0V4.318a.832.832,0,0,0-.843-.843ZM26.789,6.8a.832.832,0,0,0-.56,1.436l4.594,4.473a.832.832,0,1,0,1.161-1.192L27.39,7.04a.832.832,0,0,0-.6-.244Zm20.967,0a.832.832,0,0,0-.574.244l-4.594,4.473a.832.832,0,1,0,1.161,1.192l4.594-4.473A.832.832,0,0,0,47.756,6.8ZM37.471,13.947h0A3.072,3.072,0,0,0,34.3,16.938l.065,22.584s-.022,1.14-.347,1.147a.384.384,0,0,1-.209-.109h0l-7.834-7.471a2.6,2.6,0,0,0-3.688-.005l-.374.4c-.968,1.019-.706,2.5.191,3.682l11.241,14.77a4.015,4.015,0,0,1,.32.516,6.765,6.765,0,0,1,.273.99l.234,3.229-1.445-.047c-.6-.019-1.081.779-1.081,1.747v4.951c0,.968.482,1.745,1.081,1.747l24.71.047c.6,0,1.081-.779,1.081-1.747V58.411c0-.968-.482-1.747-1.081-1.747H55.858a15.994,15.994,0,0,1,.061-3.032c.242-1.438.654-1.038,1.485-4.114s.446-15.147.446-15.147a2.863,2.863,0,0,0-2.9-3.008,2.94,2.94,0,0,0-2.832,2.544l-.005-.746s.05-3.645-2.914-3.7a2.959,2.959,0,0,0-2.832,2.886l-.021-1.637a2.859,2.859,0,1,0-5.706-.04l-.012-.172.008-13.558a3.076,3.076,0,0,0-3.168-2.99ZM24.08,17.8a.832.832,0,1,0,0,1.663h6.412a.832.832,0,1,0,0-1.663Zm20.052,0a.832.832,0,1,0,0,1.663h6.413a.832.832,0,1,0,0-1.663Z"/></g></svg>