<svg xmlns="http://www.w3.org/2000/svg" width="29.63" height="29.63" viewBox="0 0 29.63 29.63"><defs><style>.a{fill:#bbb;}</style></defs><path class="a" d="M30.936,4H6.694A2.693,2.693,0,0,0,4,6.694V30.936A2.693,2.693,0,0,0,6.694,33.63H30.936a2.693,2.693,0,0,0,2.694-2.694V6.694A2.693,2.693,0,0,0,30.936,4ZM13.366,28.243H9.393V15.459h3.973ZM11.339,13.631a2.316,2.316,0,1,1,2.315-2.317A2.316,2.316,0,0,1,11.339,13.631ZM28.248,28.243h-3.97V22.026c0-1.483-.027-3.39-2.065-3.39-2.067,0-2.385,1.615-2.385,3.282v6.325h-3.97V15.459h3.811v1.747h.054a4.175,4.175,0,0,1,3.759-2.065c4.023,0,4.766,2.648,4.766,6.09v7.011Z" transform="translate(-4 -4)"/></svg>