<svg xmlns="http://www.w3.org/2000/svg" width="41" height="41" viewBox="0 0 41 41"><defs><style>.a,.c{fill:none;}.a{stroke:#f4f4f4;stroke-miterlimit:10;}.b{fill:#161616;}</style></defs><g transform="translate(0.5 0.5)"><rect class="a" width="40" height="40"/><g transform="translate(8 8)"><path class="b" d="M16.675,17.946H1.323A1.332,1.332,0,0,1,0,16.651V1.3A1.328,1.328,0,0,1,1.334,0h15.33A1.345,1.345,0,0,1,18,1.3V16.651A1.334,1.334,0,0,1,16.675,17.946ZM2.692,6.751v8.557H5.332V6.751Zm8.663,2.023c1.395,0,1.395,1.273,1.395,2.3v4.183h2.609V10.568a5.377,5.377,0,0,0-.588-2.9,2.809,2.809,0,0,0-2.607-1.186l-.126,0a2.8,2.8,0,0,0-2.417,1.4h-.05V6.751H7.079v8.46H9.751V10.975C9.751,9.887,9.941,8.774,11.355,8.774ZM3.984,2.49a1.493,1.493,0,0,0-1.056.438,1.521,1.521,0,0,0-.439,1.114A1.543,1.543,0,0,0,4.043,5.557v.029a1.551,1.551,0,0,0,0-3.095Z" transform="translate(3 3)"/><rect class="c" width="24" height="24"/></g></g></svg>