<svg xmlns="http://www.w3.org/2000/svg" xmlns:xlink="http://www.w3.org/1999/xlink" width="945" height="252.052" viewBox="0 0 945 252.052">
  <defs>
    <style>
      .cls-1 {
        clip-path: url(#clip-Logo);
      }

      .cls-2 {
        fill: #26a7df;
      }

      .cls-3 {
        fill: #273c8e;
      }

      .cls-4 {
        fill: #0e75bb;
      }
    </style>
    <clipPath id="clip-Logo">
      <rect width="945" height="252.052"/>
    </clipPath>
  </defs>
  <g id="Logo" class="cls-1">
    <g id="Vector_Smart_Object" data-name="Vector Smart Object" transform="translate(-106.844 -59.887)">
      <g id="Group_27" data-name="Group 27" transform="translate(106.844 59.887)">
        <path id="Path_2898" data-name="Path 2898" d="M172.507,295.584V59.887H277.019q31.514,0,47.915,6.346t26.207,22.436a66.856,66.856,0,0,1,9.806,35.524q0,25.086-16.24,42.283t-50.161,21.871q12.379,5.951,18.814,11.735a161.58,161.58,0,0,1,25.883,31.355l41,64.147H341.01l-31.188-49.041q-13.667-21.224-22.509-32.469-8.845-11.261-15.837-15.767a47,47,0,0,0-14.23-6.264q-5.31-1.13-17.371-1.131H203.7V295.582H172.507ZM203.7,163.909h67.048q21.387,0,33.442-4.422t18.335-14.155A38.255,38.255,0,0,0,328.8,124.19q0-16.713-12.145-27.487T278.305,85.931H203.7v77.977Z" transform="translate(43.696 -59.887)"/>
        <path id="Path_2899" data-name="Path 2899" d="M184.5,295.584V87.7H106.844V59.887H293.676V87.7H215.7V295.582H184.5Z" transform="translate(-106.844 -59.887)"/>
        <path id="Path_2900" data-name="Path 2900" class="cls-2" d="M324.28,184.963q0-58.679,31.52-91.884,31.5-33.191,81.356-33.192,32.643,0,58.849,15.589a101.889,101.889,0,0,1,39.958,43.494q13.74,27.893,13.745,63.259,0,35.854-14.471,64.144-14.472,28.317-41,42.852a117.126,117.126,0,0,1-57.241,14.553q-33.275,0-59.486-16.077a103.357,103.357,0,0,1-39.717-43.889A132.941,132.941,0,0,1,324.28,184.963Zm32.166.486q0,42.6,22.916,67.118,22.9,24.533,57.471,24.513,35.211,0,57.965-24.751t22.759-70.261q0-28.776-9.741-50.237-9.72-21.464-28.456-33.279A77.113,77.113,0,0,0,437.32,86.734q-33.129,0-57,22.751T356.446,185.45Z" transform="translate(391.655 -59.887)"/>
        <path id="Path_2901" data-name="Path 2901" class="cls-3" d="M245.25,295.584V59.887h31.189v235.7Z" transform="translate(210.469 -59.887)"/>
        <path id="Path_2902" data-name="Path 2902" class="cls-4" d="M353.328,295.582V195.74L262.476,59.887h37.951L346.9,130.944q12.857,19.942,23.947,39.874,10.621-18.484,25.74-41.638l45.654-69.294h36.34L384.521,195.74v99.842Z" transform="translate(249.961 -59.887)"/>
      </g>
    </g>
  </g>
</svg>
