<svg xmlns="http://www.w3.org/2000/svg" width="92.688" height="52.101" viewBox="0 0 92.688 52.101"><defs><style>.a{fill:#888;}</style></defs><g transform="translate(0 -10.531)"><path class="a" d="M3.708,10.531A3.811,3.811,0,0,0,0,14.008V44.89a17.994,17.994,0,0,0,17.961,17.73,17.576,17.576,0,0,0,15.818-9.676A18.4,18.4,0,0,0,49.6,62.619,18.071,18.071,0,0,0,67.558,44.658,17.823,17.823,0,0,0,49.77,26.523,17.576,17.576,0,0,0,33.953,36.2a18.4,18.4,0,0,0-15.818-9.676A17.753,17.753,0,0,0,7.358,30.231V14.008A3.5,3.5,0,0,0,3.708,10.531ZM88.59,26.407a3.222,3.222,0,0,0-2.318,1.275l-7.938,10.6L70.223,27.913a3.424,3.424,0,0,0-4.983-.579,3.626,3.626,0,0,0-.811,4.983L73.7,44.658l-9.27,12.167a3.624,3.624,0,0,0,.811,4.983,3.586,3.586,0,0,0,4.983-.579l7.938-10.6,7.88,10.6a3.491,3.491,0,0,0,5.041.579,3.623,3.623,0,0,0,.927-4.983L82.8,44.484l9.212-12.341a3.685,3.685,0,0,0-.753-5.041A3.8,3.8,0,0,0,88.59,26.407ZM17.961,33.649A10.806,10.806,0,1,1,7.185,44.484,10.787,10.787,0,0,1,17.961,33.649Zm31.809,0A10.806,10.806,0,1,1,38.994,44.484,10.837,10.837,0,0,1,49.77,33.649Z"/></g></svg>