<svg xmlns="http://www.w3.org/2000/svg" width="157.261" height="48.07" viewBox="0 0 157.261 48.07"><defs><style>.a{fill:#888;}</style></defs><g transform="translate(-215.91 -415.315)"><g transform="translate(215.91 415.316)"><path class="a" d="M226.589,457.948v.132h23.419v7.829h-34.1v-7.565l22.778-27.795v-.132H216.9v-7.9h32.43v7.565Z" transform="translate(-215.91 -418.704)"/><path class="a" d="M290.178,420.726a5.244,5.244,0,1,1,5.242,5.078A5.244,5.244,0,0,1,290.178,420.726Zm1.324,41.8V429.748h7.9v32.774Z" transform="translate(-250.835 -415.316)"/><path class="a" d="M344.312,454.067a9.263,9.263,0,0,0-9.005-5.774c-5.769,0-9.683,4.116-9.683,9.89s3.915,9.885,9.683,9.885a9.234,9.234,0,0,0,9.005-5.774h7.946c-1.589,7.76-8.094,13.137-16.983,13.137-10.351,0-17.645-7.3-17.645-17.248s7.294-17.253,17.645-17.253c8.889,0,15.394,5.377,16.983,13.137Z" transform="translate(-263.746 -427.361)"/><path class="a" d="M392.88,462.613v-47.1h7.893v28.526h.117l12.872-14.2h10.065L408.433,445.9l15.992,16.718h-10.25l-13.286-14.663h-.132v14.663Z" transform="translate(-299.134 -415.407)"/><path class="a" d="M479.448,455.858v-.328c0-5.3-2.649-7.236-6.5-7.236s-6.505,1.928-6.505,7.236v19.038H458.55V455.529c0-9.89,5.827-14.6,14.4-14.6s14.329,4.709,14.329,14.732v.2Z" transform="translate(-330.017 -427.361)"/></g></g></svg>