<svg xmlns="http://www.w3.org/2000/svg" width="222.613" height="44.597" viewBox="0 0 222.613 44.597"><defs><style>.a{fill:#888;fill-rule:evenodd;}</style></defs><g transform="translate(0 -0.404)"><g transform="translate(0 0.404)"><path class="a" d="M73.755,20.93a10.317,10.317,0,0,0-6.426-2.018c-1.972,0-3.724.677-3.724,2.4,0,1.784,2.524,1.889,5.062,2.075,3.253.233,8.356.58,8.356,5.585,0,4.41-3.667,6.124-8.024,6.124a14.577,14.577,0,0,1-9.874-3.677l2.054-2.435a11.821,11.821,0,0,0,7.875,3.153c2.481,0,4.454-.9,4.454-2.765,0-2-1.956-2.453-4.88-2.668-3.957-.292-8.538-.651-8.538-5.13,0-4.327,4-5.64,7.351-5.64a14.934,14.934,0,0,1,8.384,2.53l-2.07,2.461" transform="translate(-7.011 -2.246)"/><path class="a" d="M121.672,34.622V23.245h-.138l-5.516,9.277h-.8L109.7,23.245h-.138V34.622h-3.392V16.566h3.475l6.08,10.274h.057l6.067-10.274H125.2V34.622h-3.53" transform="translate(-12.591 -2.321)"/><path class="a" d="M158.291,34.622V16.566h3.53v7.141h9.143V16.566h3.529V34.622h-3.529v-7.86h-9.143v7.86h-3.53" transform="translate(-18.771 -2.321)"/><path class="a" d="M191.509,15.956a9.568,9.568,0,1,1-9.787,9.524A9.687,9.687,0,0,1,191.509,15.956Zm0,16.049A6.35,6.35,0,0,0,197.7,25.48a6.145,6.145,0,1,0-12.277,0,6.3,6.3,0,0,0,6.092,6.525Z" transform="translate(-21.55 -2.248)"/><path class="a" d="M225.464,16.566V34.622h-3.076l-9.775-11.848h-.027V34.622h-3.531V16.566h3.061l9.792,11.863h.027V16.566h3.53" transform="translate(-24.791 -2.321)"/><path class="a" d="M250.064,16.566h-4.051l-5.066,8.585h-.091l-5.077-8.585h-4.294l7.529,12.044v6.013h3.53V28.608l7.519-12.042" transform="translate(-27.451 -2.321)"/><path class="a" d="M99.826,16.566H95.776L90.709,25.15h-.092l-5.075-8.585H81.248l7.53,12.044v6.013h3.529V28.608l7.519-12.042" transform="translate(-9.635 -2.321)"/><path class="a" d="M137.825,19.622h5.888a3.7,3.7,0,0,1,2.878,1,2.877,2.877,0,0,1,.822,2.013,2.918,2.918,0,0,1-.9,2.08,3.827,3.827,0,0,1-2.8.919h-5.888Zm0,9.122h5.8a7.462,7.462,0,0,0,5.5-1.854,5.859,5.859,0,0,0,1.817-4.259,5.761,5.761,0,0,0-1.565-3.959c-1.227-1.339-3.01-2.108-5.753-2.108h-9.315V34.622h3.517V28.744Z" transform="translate(-15.927 -2.321)"/><path class="a" d="M6.008,29.316A16.934,16.934,0,0,0,7.852,37.03l15.1-7.714H6.008" transform="translate(-0.712 -3.833)"/><path class="a" d="M18.169,37.906A10.529,10.529,0,0,0,24.4,39.934V29.316l-6.226,8.591" transform="translate(-2.155 -3.833)"/><path class="a" d="M34.426,2.339A25.258,25.258,0,0,0,24.7.4a25.609,25.609,0,0,0-3.976.31L24.7,25.887,34.426,2.339" transform="translate(-2.457 -0.404)"/><g transform="translate(0 13.001)"><path class="a" d="M25.233,12.873h21.18A21.173,21.173,0,0,0,42.368.391L25.233,12.873" transform="translate(-2.992 -0.391)"/><path class="a" d="M3.275,1.334A22.236,22.236,0,0,0,0,12.985H22.241L3.275,1.334" transform="translate(0 -0.502)"/></g><path class="a" d="M24.06,12.451a14.739,14.739,0,0,0-8.716,2.839L24.06,27.316V12.451" transform="translate(-1.82 -1.833)"/><path class="a" d="M25.233,48.429a18.941,18.941,0,0,0,11.2-3.651l-11.2-15.462V48.429" transform="translate(-2.992 -3.833)"/><path class="a" d="M39.879,26.677,25.233,29l13.7,5.69A14.842,14.842,0,0,0,40.059,29a15.112,15.112,0,0,0-.181-2.326" transform="translate(-2.992 -3.52)"/></g></g></svg>