<svg xmlns="http://www.w3.org/2000/svg" width="118.946" height="39.787" viewBox="0 0 118.946 39.787"><defs><style>.a{fill:#888;}</style></defs><g transform="translate(-5.005 -11.607)"><path class="a" d="M56.816,34.765a4.271,4.271,0,1,1,4.177-4.27,4.225,4.225,0,0,1-4.177,4.27Zm4.191.541c0,.389.671,1.489,1.493,1.489h.532a.379.379,0,0,0,.375-.375V24.736a.375.375,0,0,0-.373-.355H61.379a.376.376,0,0,0-.373.355h0v.95a5.283,5.283,0,0,0-4.2-1.76,6.569,6.569,0,0,0,0,13.139,5.411,5.411,0,0,0,4.2-1.76Zm6.335-1.673A6.08,6.08,0,0,0,70.8,34.765c1.1,0,2.236-.57,2.236-1.562,0-1.324-2.488-1.53-4.032-2.059s-2.9-1.622-2.9-3.392c0-2.708,2.414-3.829,4.666-3.829a7.022,7.022,0,0,1,3.855,1.146.383.383,0,0,1,.13.535l-.912,1.3a.382.382,0,0,1-.539.115,4.139,4.139,0,0,0-2.533-.8c-1.529,0-2.2.635-2.2,1.421,0,.943,1.076,1.241,2.336,1.562,2.2.592,4.592,1.3,4.592,4,0,2.386-2.232,3.861-4.7,3.861A7.889,7.889,0,0,1,66,35.551a.4.4,0,0,1-.084-.536l.908-1.295a.36.36,0,0,1,.519-.087Zm20.512,1.673c0,.389.671,1.489,1.493,1.489h.532a.379.379,0,0,0,.375-.375l0-11.686a.375.375,0,0,0-.373-.355H88.231a.376.376,0,0,0-.373.355h0v.95a5.282,5.282,0,0,0-4.2-1.76,6.569,6.569,0,0,0,0,13.139,5.411,5.411,0,0,0,4.2-1.76Zm-4.191-.541a4.271,4.271,0,1,1,4.177-4.27,4.225,4.225,0,0,1-4.177,4.27Zm21.352.943V29.652c0-3.409-2.15-5.708-5.581-5.708a4.205,4.205,0,0,0-3.461,1.76v-.011l0,.011a1.344,1.344,0,0,0-1.493-1.3h-.541a.379.379,0,0,0-.375.375l0,11.687a.375.375,0,0,0,.373.355h1.647a.413.413,0,0,0,.074-.008.19.19,0,0,0,.032-.011l.037-.011c.015-.006.028-.014.043-.022l.022-.011a.386.386,0,0,0,.047-.037.339.339,0,0,0,.052-.057.387.387,0,0,0,.07-.2h0v-6.9a3.315,3.315,0,1,1,6.63,0l0,6.9a.375.375,0,0,0,.373.355h1.647a.4.4,0,0,0,.074-.008c.011,0,.018-.006.028-.009l.04-.013a.19.19,0,0,0,.038-.022l.024-.011a.432.432,0,0,0,.043-.035.353.353,0,0,0,.054-.057.376.376,0,0,0,.072-.2h0V35.7Zm12.851-.4c0,.389.671,1.489,1.49,1.489h.532a.379.379,0,0,0,.375-.375V24.736a.375.375,0,0,0-.373-.355h-1.647a.375.375,0,0,0-.373.355h0v.95a5.286,5.286,0,0,0-4.2-1.76,6.569,6.569,0,0,0,0,13.139,5.411,5.411,0,0,0,4.2-1.76Zm-4.191-.541a4.271,4.271,0,1,1,4.177-4.27A4.225,4.225,0,0,1,113.674,34.768Z" transform="translate(3.689 1.004)"/><path class="a" d="M41.861,32.67a9.362,9.362,0,1,0,9.362,9.362,9.366,9.366,0,0,0-9.362-9.362Zm-24.335,0a9.362,9.362,0,1,0,9.362,9.362,9.366,9.366,0,0,0-9.362-9.362Zm21.523-11.7a9.361,9.361,0,1,1-9.361-9.362,9.366,9.366,0,0,1,9.361,9.362Z" transform="translate(-3.159)"/></g></svg>