<svg xmlns="http://www.w3.org/2000/svg" width="108.451" height="98" viewBox="0 0 108.451 98"><defs><style>.a{fill:none;}.b{fill:#d1ecff;}</style></defs><g transform="translate(-892.549 -481)"><rect class="a" width="108" height="98" transform="translate(893 481)"/><path class="b" d="M35.846-115.412,44.975-148.4H24.435L12.4-118.524C7.63-107.113,6.8-103.171,6.8-97.776c0,11.826,8.506,19.917,20.125,19.917,11.411,0,19.917-7.884,19.917-19.917C46.842-106.283,42.693-112.507,35.846-115.412Zm48.964,0L93.939-148.4H73.4L61.365-118.524c-4.772,11.411-5.6,15.353-5.6,20.747,0,11.826,8.506,19.917,20.125,19.917,11.411,0,19.917-7.884,19.917-19.917C95.806-106.283,91.657-112.507,84.81-115.412Z" transform="translate(858.299 617.106) rotate(21)"/></g></svg>