<svg xmlns="http://www.w3.org/2000/svg" width="798.252" height="495.276" viewBox="0 0 798.252 495.276"><defs><style>.a{fill:none;stroke:#0e75bb;stroke-miterlimit:10;}.b{fill:#0e75bb;}</style></defs><g transform="translate(-251.264 -5099.01)"><g transform="matrix(0.848, -0.53, 0.53, 0.848, 777.72, 5527.495)"><path class="a" d="M529.03,158.026l4.189-1.753a.677.677,0,0,0,.18-1.139l-3-2.584a.677.677,0,0,0-1.1.335l-1.186,4.337A.678.678,0,0,0,529.03,158.026Z" transform="translate(-439.208 -24.611)"/><path class="a" d="M323.1,221.89l-1.228-4.371a.677.677,0,0,0-1.108-.318l-2.932,2.665a.677.677,0,0,0,.2,1.128l4.16,1.706A.677.677,0,0,0,323.1,221.89Z" transform="translate(-53.176 -143.188)"/><path class="a" d="M638.611,274.447l-3.218,3.2a.678.678,0,0,0,.263,1.123l3.756,1.261a.677.677,0,0,0,.888-.723l-.537-4.465A.678.678,0,0,0,638.611,274.447Z" transform="translate(-635.193 -248.227)"/><path class="a" d="M624.59,225.338l-1.183-4.384a.678.678,0,0,0-1.106-.33l-2.96,2.634a.678.678,0,0,0,.188,1.131l4.142,1.75A.678.678,0,0,0,624.59,225.338Z" transform="translate(-606.094 -149.487)"/><rect class="b" width="2.596" height="2.596" transform="translate(34.403 83.263) rotate(142.609)"/><rect class="b" width="2.596" height="2.596" transform="matrix(-0.999, 0.044, -0.044, -0.999, 53.641, 102.538)"/><rect class="b" width="2.596" height="2.596" transform="translate(220.184 68.1) rotate(158.706)"/><rect class="b" width="2.596" height="2.596" transform="matrix(-0.934, -0.358, 0.358, -0.934, 194.402, 132.272)"/><rect class="b" width="2.596" height="2.596" transform="matrix(-0.999, 0.044, -0.044, -0.999, 296.635, 2.593)"/></g><g transform="translate(544.793 5153.082) rotate(135)"><path class="a" d="M529.2,159.068l4.963-2.077a.8.8,0,0,0,.213-1.35l-3.558-3.062a.8.8,0,0,0-1.3.4l-1.405,5.139A.8.8,0,0,0,529.2,159.068Z" transform="translate(-422.786 -1.004)"/><path class="a" d="M324.115,222.789l-1.455-5.179a.8.8,0,0,0-1.313-.376l-3.474,3.158a.8.8,0,0,0,.236,1.337l4.928,2.021A.8.8,0,0,0,324.115,222.789Z" transform="translate(-4.32 -129.547)"/><path class="a" d="M639.242,274.484l-3.813,3.795a.8.8,0,0,0,.311,1.331l4.45,1.494a.8.8,0,0,0,1.052-.857l-.636-5.29A.8.8,0,0,0,639.242,274.484Z" transform="translate(-635.193 -243.419)"/><path class="a" d="M625.6,226.24l-1.4-5.194a.8.8,0,0,0-1.31-.391l-3.506,3.121a.8.8,0,0,0,.222,1.34l4.907,2.074A.8.8,0,0,0,625.6,226.24Z" transform="translate(-603.689 -136.376)"/><rect class="b" width="3.076" height="3.075" transform="translate(40.759 98.646) rotate(142.609)"/><rect class="b" width="3.075" height="3.075" transform="matrix(-0.999, 0.044, -0.044, -0.999, 63.552, 121.482)"/><rect class="b" width="3.075" height="3.075" transform="translate(260.865 80.682) rotate(158.706)"/><rect class="b" width="3.075" height="3.075" transform="matrix(-0.934, -0.358, 0.358, -0.934, 230.318, 156.709)"/><rect class="b" width="3.075" height="3.075" transform="matrix(-0.999, 0.044, -0.044, -0.999, 351.44, 3.072)"/></g></g></svg>