<svg xmlns="http://www.w3.org/2000/svg" width="41" height="41" viewBox="0 0 41 41"><defs><style>.a,.c{fill:none;}.a{stroke:#f4f4f4;stroke-miterlimit:10;}.b{fill:#161616;}</style></defs><g transform="translate(0.5 0.5)"><rect class="a" width="40" height="40"/><g transform="translate(8 8)"><path class="b" d="M5.19,13.408a9.57,9.57,0,0,0,9.63-9.63V3.335A7.05,7.05,0,0,0,16.5,1.588a6.982,6.982,0,0,1-1.943.533,3.42,3.42,0,0,0,1.5-1.875,6.668,6.668,0,0,1-2.145.825A3.39,3.39,0,0,0,8.137,4.153,9.593,9.593,0,0,1,1.163.62a3.382,3.382,0,0,0,1.05,4.5,3.353,3.353,0,0,1-1.5-.42v.037A3.4,3.4,0,0,0,3.375,8.075a3.4,3.4,0,0,1-1.5.06A3.383,3.383,0,0,0,5.01,10.453,6.788,6.788,0,0,1,.8,11.953a7.328,7.328,0,0,1-.8-.068,9.577,9.577,0,0,0,5.19,1.5" transform="translate(3.75 5.297)"/><rect class="c" width="24" height="24"/></g></g></svg>