<svg xmlns="http://www.w3.org/2000/svg" width="512" height="564.233" viewBox="0 0 512 564.233"><defs><style>.a{fill:#f9f9f9;}.b{fill:#273c8e;}.c{fill:#f4f4f4;}.c,.d,.e,.f,.g,.i{fill-rule:evenodd;}.d,.j{fill:#1275b9;}.e{fill:#849cf2;}.f,.h{fill:#cbd3f0;}.g{fill:#2d45a4;}.i,.k{fill:#fff;}.l{fill:#004d9a;}.m{fill:#26a7df;}.n{fill:#2842fa;}</style></defs><g transform="translate(-1344.14 -2472)"><ellipse class="a" cx="238.5" cy="238" rx="238.5" ry="238" transform="translate(1344.14 2560.233)"/><g transform="translate(1413.877 2472)"><g transform="translate(0 236.801)"><path class="b" d="M8.053,0H243.2a8.054,8.054,0,0,1,8.054,8.054V157.078a8.053,8.053,0,0,1-8.053,8.053H8.053A8.053,8.053,0,0,1,0,157.078V8.053A8.053,8.053,0,0,1,8.053,0Z" transform="translate(43.639)"/><path class="c" d="M182.382,263.8H407.562V384.685L182.382,392.71Z" transform="translate(-125.707 -246.555)"/><path class="d" d="M286.947,259.486a3.16,3.16,0,1,0-3.16-3.16A3.16,3.16,0,0,0,286.947,259.486Z" transform="translate(-117.68 -247.397)"/><path class="e" d="M287.091,397.6a5.135,5.135,0,1,0-5.136-5.136A5.135,5.135,0,0,0,287.091,397.6Z" transform="translate(-117.825 -236.777)"/><path class="f" d="M173.5,400.839H424.758L468.4,419.4H129.864Z" transform="translate(-129.864 -235.708)"/><path class="g" d="M129.864,418.043H468.4v4.875a6.3,6.3,0,0,1-6.282,6.281H136.146a6.3,6.3,0,0,1-6.282-6.281Z" transform="translate(-129.864 -234.346)"/><rect class="h" width="68.382" height="4.36" transform="translate(135.075 187.13)"/><path class="i" d="M182.382,392.71H407.562V263.8Z" transform="translate(-125.707 -246.555)"/></g><g transform="translate(321.019 135.673)"><path class="j" d="M427.336,163.142l6.323,66.3,94.721-9.034-6.325-66.3Zm92.165-2.418-27.907,28.945L524.62,214.4l.3,3.159-36.569-24.521-9.439,9.79L467.792,195l-31.275,30.99-.3-3.158L463.969,192.3,431.1,169.154,430.8,166l47.214,27.356L519.2,157.566Z" transform="translate(-427.336 -154.109)"/><path class="k" d="M519.248,160.469l-27.907,28.946,33.026,24.729.3,3.159L488.1,192.782l-9.439,9.79-11.12-7.829-31.275,30.99-.3-3.158,27.752-30.525L430.844,168.9l-.3-3.157L477.757,193.1l41.189-35.786Z" transform="translate(-427.082 -153.855)"/></g><g transform="translate(234.372 230.499)"><path class="l" d="M347.045,271.495,367.7,297.768l37.534-29.515L384.577,241.98Zm38.248-26.028-3.925,19.791,20.651,1.478.984,1.251-22.091-.427-1.327,6.694-6.818-.288-4.795,21.568-.983-1.251,3.433-20.417-20.158-.853-.984-1.251,27.353-1.263,7.677-26.285Z" transform="translate(-347.045 -241.98)"/><path class="k" d="M385.13,245.3l-3.925,19.791,20.65,1.478.984,1.251-22.091-.428-1.327,6.694L372.6,273.8l-4.794,21.569-.983-1.251,3.434-20.416-20.158-.853-.984-1.251,27.354-1.262,7.676-26.284Z" transform="translate(-346.881 -241.816)"/></g><g transform="translate(356.594 100.079)"><path class="l" d="M481.589,121.126,460.3,152.052l44.181,30.412,21.287-30.926Zm40.682,32.342-22.539,2.393,5.305,22.644-1.013,1.473-6.912-23.839-7.623.81-1.966-7.411-24.734,2.055,1.013-1.473,23.044-3.13-5.81-21.907,1.013-1.472,10.481,28.919L523.285,152Z" transform="translate(-460.302 -121.126)"/><path class="k" d="M522.089,153.286l-22.538,2.393,5.3,22.643-1.013,1.472-6.912-23.838-7.623.81-1.966-7.41-24.734,2.055,1.014-1.473,23.044-3.129L480.853,124.9l1.014-1.473,10.48,28.919,30.755-.535Z" transform="translate(-460.12 -120.944)"/></g><g transform="translate(172.598 52.65)"><path class="l" d="M289.8,111.977l24.362,48.36,69.085-34.8L358.888,77.176Zm69.1-29.036L346.31,113.105l32.315,8.984,1.161,2.3-34.94-7.78-4.259,10.2-10.735-2.649-14.545,32.707-1.16-2.3,12.014-31.315-31.736-7.835-1.159-2.3,43.84,6.788,20.64-39.269Z" transform="translate(-289.802 -77.176)"/><path class="k" d="M358.651,82.687l-12.595,30.164,32.315,8.984,1.16,2.3-34.94-7.779-4.259,10.2-10.736-2.65-14.544,32.707-1.16-2.3L325.906,123l-31.735-7.834-1.159-2.3,43.839,6.788,20.64-39.269Z" transform="translate(-289.548 -76.922)"/></g><g transform="translate(199.247 196.955)"><path class="m" d="M314.5,210.9V239h40.152V210.9Zm38.814,2.676-12.883,11.042,12.883,11.711v1.339L338.929,225.9l-4.357,3.735-4.359-3.735-14.38,11.766v-1.339l12.882-11.711-12.882-11.042v-1.338l18.738,13.384,18.737-13.384Z" transform="translate(-314.496 -210.896)"/><path class="k" d="M353.212,213.474l-12.883,11.042,12.883,11.711v1.339L338.831,225.8l-4.357,3.735-4.358-3.735-14.379,11.765v-1.339l12.881-11.711-12.881-11.042v-1.338l18.738,13.384,18.738-13.384Z" transform="translate(-314.398 -210.798)"/></g><g transform="translate(149.19 314.596)"><path class="m" d="M268.111,319.909v28.107h40.153V319.909Zm38.815,2.676-12.883,11.042,12.883,11.711v1.339l-14.381-11.766-4.358,3.735-4.358-3.735-14.38,11.766v-1.339l12.881-11.711L269.45,322.585v-1.338l18.737,13.384,18.738-13.384Z" transform="translate(-268.111 -319.909)"/><path class="k" d="M306.827,322.487l-12.882,11.042,12.882,11.711v1.339l-14.381-11.765-4.357,3.735-4.358-3.735-14.379,11.765V345.24l12.881-11.711-12.881-11.042v-1.339l18.738,13.384,18.738-13.384Z" transform="translate(-268.013 -319.811)"/></g><g transform="translate(265.411 151.831)"><path class="m" d="M427.079,169.082l-51.272,47.459,67.8,73.246,51.272-47.459ZM487.734,244.4l-41.895-4.854.391,43.273-2.442,2.261-2.82-46.1-14.17-1.642-.545-14.256-45.743-6.365,2.441-2.261,43.115,3.724-1.61-42.144,2.442-2.26,7.225,56.782,56.054,11.579Z" transform="translate(-375.807 -169.082)"/><path class="k" d="M487.389,244.06l-41.895-4.854.39,43.274-2.442,2.26-2.819-46.1L426.453,237l-.545-14.256-45.743-6.366,2.441-2.26,43.115,3.724L424.111,175.7l2.442-2.26,7.225,56.781,56.053,11.58Z" transform="translate(-375.462 -168.737)"/></g><g transform="translate(273.995 37.325)"><path class="m" d="M383.762,94.348l21.962,57.832,82.617-31.373L466.379,62.975Zm81.954-24.819-17.878,32.786,35.658,14.03,1.046,2.755-38.782-12.974-6.048,11.089-11.884-4.28-20.4,35.445-1.046-2.753,17.355-34.163L388.607,98.809l-1.047-2.754,49.014,12.9,28.1-42.18Z" transform="translate(-383.762 -62.975)"/><path class="k" d="M465.437,69.25,447.56,102.036l35.657,14.03,1.046,2.755-38.782-12.973-6.047,11.089-11.885-4.28-20.4,35.444-1.046-2.754,17.355-34.163L388.329,98.531l-1.046-2.754,49.014,12.9,28.1-42.18Z" transform="translate(-383.483 -62.696)"/></g><g transform="translate(216.653 131.564)"><path class="j" d="M348.732,150.3l-18.106,14.667,20.953,25.865,18.105-14.666Zm18.529,26.4-13.835-2.537-.822,14.41-.862.7.076-15.4-4.679-.858.132-4.756-15.083-3.125.862-.7,14.266,2.187.392-14.06.861-.7,1.157,19.055,18.4,5.086Z" transform="translate(-330.626 -150.302)"/><path class="k" d="M367.147,176.588l-13.835-2.537-.822,14.409-.862.7.076-15.4-4.68-.858.132-4.756-15.083-3.124.862-.7,14.266,2.187.392-14.061.862-.7L349.61,170.8l18.4,5.086Z" transform="translate(-330.512 -150.188)"/></g><g transform="translate(257.254 0)"><path class="j" d="M389.282,28.388,368.249,48.721,397.3,78.768l21.033-20.332Zm26.076,30.983-17.582-1.652.555,18.113-1,.968-1.6-19.273-5.947-.559L389.426,51l-19.207-2.25,1-.968L389.3,48.955l-1.055-17.628,1-.968,3.54,23.7L416.36,58.4Z" transform="translate(-368.249 -28.388)"/><path class="k" d="M415.213,59.226l-17.582-1.652.555,18.112-1,.969-1.6-19.273-5.948-.559-.357-5.963-19.207-2.249,1-.968,18.082,1.167L388.1,31.182l1-.968,3.54,23.7,23.571,4.34Z" transform="translate(-368.105 -28.243)"/></g><g transform="translate(338.432 217.482)"><path class="j" d="M474,229.918l-30.527,29.511,42.159,43.611,30.527-29.511Zm37.846,44.967-25.519-2.4.806,26.288-1.454,1.406-2.32-27.973-8.631-.812-.519-8.654-27.877-3.266,1.455-1.405,26.244,1.694L472.5,234.183l1.453-1.405,5.138,34.4,34.209,6.3Z" transform="translate(-443.472 -229.918)"/><path class="k" d="M511.636,274.676l-25.519-2.4.806,26.288-1.454,1.406L483.149,272l-8.632-.812L474,262.533l-27.877-3.265,1.454-1.405,26.244,1.695-1.532-25.585,1.453-1.405,5.138,34.4,34.21,6.3Z" transform="translate(-443.262 -229.708)"/></g><g transform="translate(107.01 315.935)"><path class="j" d="M236.4,321.149l-7.374,31.932,45.62,10.533,7.373-31.933Zm43.4,13.222-17.533,9.166,11.564,16.685-.351,1.522L260.223,344.6l-5.93,3.1-3.971-5.387-19.424,9.6.351-1.521,17.708-9.927L237.218,324.54l.351-1.519,17.778,20.121,24.8-10.291Z" transform="translate(-229.025 -321.149)"/><path class="k" d="M279.658,334.233,262.125,343.4l11.564,16.686-.351,1.521-13.252-17.14-5.931,3.1-3.971-5.386-19.424,9.6.351-1.521,17.707-9.927L237.08,324.4l.351-1.52L255.21,343l24.8-10.291Z" transform="translate(-228.888 -321.012)"/></g><g transform="translate(208.631 275.554)"><path class="j" d="M336.121,283.73l-12.929,30.116,43.024,18.47L379.143,302.2Zm40.358,20.722L357.6,310.357l8.416,18.475-.616,1.434-10-19.222-6.386,2-2.951-6.007-20.82,5.993.616-1.434,19.189-6.624-8.722-17.756.615-1.433,13.921,22.959,26.232-5.722Z" transform="translate(-323.192 -283.73)"/><path class="k" d="M376.329,304.3l-18.883,5.905,8.417,18.475-.616,1.434-10-19.222-6.387,2-2.951-6.006-20.82,5.992.616-1.434L344.9,304.82l-8.723-17.756.615-1.434,13.922,22.96,26.232-5.721Z" transform="translate(-323.042 -283.58)"/></g><g transform="translate(266.929 127.519)"><path class="n" d="M377.214,146.554v48.111h68.73V146.554Zm66.438,4.582-22.05,18.9,22.05,20.045v2.291l-24.614-20.139-7.458,6.394-7.459-6.394-24.615,20.139v-2.291l22.05-20.045-22.05-18.9v-2.291l32.075,22.909,32.072-22.909Z" transform="translate(-377.214 -146.554)"/><path class="k" d="M443.485,150.968l-22.051,18.9,22.051,20.046v2.291L418.87,172.067l-7.458,6.393-7.459-6.393-24.615,20.139v-2.291l22.05-20.046-22.05-18.9v-2.291l32.074,22.909,32.073-22.909Z" transform="translate(-377.046 -146.386)"/></g><g transform="translate(282.294 280.917)"><path class="n" d="M401.146,288.7l-9.694,38.163,54.519,13.849,9.694-38.163Zm51.778,17.021-21.3,10.55,13.453,20.344-.461,1.817L429.147,317.5l-7.2,3.569-4.63-6.574-23.583,11.016.462-1.817,21.53-11.458L402.041,292.8l.462-1.817,20.826,24.636L453.386,303.9Z" transform="translate(-391.452 -288.7)"/><path class="k" d="M452.757,305.554l-21.3,10.55,13.453,20.344-.462,1.817L428.98,317.331l-7.2,3.569-4.629-6.574-23.583,11.015.461-1.817,21.53-11.458L401.873,292.63l.462-1.818,20.826,24.636,30.057-11.711Z" transform="translate(-391.285 -288.533)"/></g><g transform="translate(157.382 269.768)"><path class="n" d="M275.7,305.645l19.093,29.4L336.8,307.774l-19.094-29.4Zm42.425-23.567-5.976,20.3,21.433,3.5.909,1.4-23.037-2.539-2.021,6.867-7.1-.946-7.051,22.077-.909-1.4,5.521-21-20.978-2.8-.91-1.4,28.695,1.273,10.511-26.731Z" transform="translate(-275.702 -278.369)"/><path class="k" d="M317.957,281.909l-5.976,20.3,21.433,3.5.909,1.4-23.036-2.539-2.021,6.867-7.1-.947-7.051,22.077-.909-1.4,5.521-21-20.978-2.8-.909-1.4,28.695,1.273,10.51-26.731Z" transform="translate(-275.533 -278.2)"/></g><g transform="translate(389.328 50.38)"><path class="n" d="M511.911,75.073,490.635,90.264l21.7,30.394,21.276-15.191ZM530.864,105.9l-15.323-3.785-1.9,16.082-1.013.723,1.134-17.245-5.182-1.279.472-5.318-16.678-4.526,1.014-.723,15.827,3.421,1.4-15.719,1.013-.723,0,21.418,20.259,6.95Z" transform="translate(-490.635 -75.073)"/><path class="k" d="M530.736,105.774l-15.323-3.784-1.9,16.082-1.013.723,1.134-17.245-5.182-1.279.472-5.318-16.678-4.527,1.014-.723,15.827,3.422,1.4-15.719,1.014-.723,0,21.418,20.258,6.95Z" transform="translate(-490.508 -74.946)"/></g><g transform="translate(399.503 212.594)"><path class="n" d="M517.574,225.465l-17.4-.077-.11,24.857,17.4.078Zm-1.763,24.022-6.8-8.006-7.285,7.944-.829,0,7.324-8.871-2.3-2.708,2.324-2.688L501,226.22l.829,0,7.215,8.006,6.871-7.945.829,0-8.336,11.564,8.234,11.637Z" transform="translate(-500.064 -225.388)"/><path class="k" d="M515.75,249.426l-6.8-8.006-7.286,7.943-.828,0,7.323-8.87-2.3-2.707,2.325-2.688-7.245-8.935.829,0,7.215,8.007,6.872-7.945.828,0-8.337,11.564,8.234,11.637Z" transform="translate(-500.003 -225.327)"/></g><circle class="j" cx="6.567" cy="6.567" r="6.567" transform="translate(153.436 206.859)"/><circle class="j" cx="5.792" cy="5.792" r="5.792" transform="translate(430.678 217.93)"/><circle class="j" cx="6.567" cy="6.567" r="6.567" transform="translate(392.936 326.362)"/><circle class="j" cx="6.567" cy="6.567" r="6.567" transform="translate(377.915 30.758)"/><circle class="n" cx="6.567" cy="6.567" r="6.567" transform="translate(314.452 7.147)"/><circle class="n" cx="6.567" cy="6.567" r="6.567" transform="translate(425.739 139.13)"/><circle class="n" cx="6.567" cy="6.567" r="6.567" transform="translate(412.036 311.239)"/><circle class="n" cx="6.567" cy="6.567" r="6.567" transform="translate(167.833 191.725)"/><path class="m" d="M299.921,184.226A4.224,4.224,0,1,1,295.7,180,4.224,4.224,0,0,1,299.921,184.226Z" transform="translate(-117.072 -16.387)"/><path class="m" d="M367.439,142.426a4.225,4.225,0,1,1-4.224-4.225A4.224,4.224,0,0,1,367.439,142.426Z" transform="translate(-111.727 -19.696)"/><path class="m" d="M533.386,121.435a4.225,4.225,0,1,1-4.224-4.224A4.224,4.224,0,0,1,533.386,121.435Z" transform="translate(-98.592 -21.357)"/><path class="m" d="M495.17,317.108a4.225,4.225,0,1,1-4.224-4.225A4.225,4.225,0,0,1,495.17,317.108Z" transform="translate(-101.617 -5.869)"/><path class="m" d="M423.106,350.178a4.225,4.225,0,1,1-4.225-4.224A4.226,4.226,0,0,1,423.106,350.178Z" transform="translate(-107.321 -3.251)"/><path class="m" d="M296.007,237.25a4.225,4.225,0,1,1-4.225-4.224A4.225,4.225,0,0,1,296.007,237.25Z" transform="translate(-117.382 -12.19)"/><path class="l" d="M365.822,197.971a1.676,1.676,0,1,1-1.676-1.676A1.676,1.676,0,0,1,365.822,197.971Z" transform="translate(-111.452 -15.097)"/><path class="l" d="M513.477,311.453a1.676,1.676,0,1,1-1.676-1.676A1.676,1.676,0,0,1,513.477,311.453Z" transform="translate(-99.764 -6.114)"/><path class="l" d="M534.565,273.8a1.676,1.676,0,1,1-1.676-1.676A1.675,1.675,0,0,1,534.565,273.8Z" transform="translate(-98.095 -9.095)"/><path class="l" d="M478.949,303.565a1.676,1.676,0,1,1-1.676-1.676A1.676,1.676,0,0,1,478.949,303.565Z" transform="translate(-102.497 -6.739)"/><path class="l" d="M525.647,258.524a1.676,1.676,0,1,1-1.675-1.676A1.675,1.675,0,0,1,525.647,258.524Z" transform="translate(-98.801 -10.304)"/><path class="l" d="M522.768,132.977a1.676,1.676,0,1,1-1.676-1.676A1.677,1.677,0,0,1,522.768,132.977Z" transform="translate(-99.029 -20.242)"/><path class="l" d="M490.881,75.2A1.676,1.676,0,1,1,489.2,73.52,1.676,1.676,0,0,1,490.881,75.2Z" transform="translate(-101.553 -24.816)"/><path class="l" d="M373.427,148.8a1.676,1.676,0,1,1-1.676-1.676A1.676,1.676,0,0,1,373.427,148.8Z" transform="translate(-110.85 -18.989)"/><path class="l" d="M285.586,201.077a1.676,1.676,0,1,1-1.676-1.676A1.677,1.677,0,0,1,285.586,201.077Z" transform="translate(-117.803 -14.851)"/><path class="l" d="M279.93,173.561a1.676,1.676,0,1,1-1.676-1.676A1.676,1.676,0,0,1,279.93,173.561Z" transform="translate(-118.251 -17.029)"/><path class="l" d="M293.271,147.247a1.676,1.676,0,1,1-1.676-1.676A1.676,1.676,0,0,1,293.271,147.247Z" transform="translate(-117.195 -19.112)"/><path class="n" d="M342.158,66.618a1.676,1.676,0,1,1-1.676-1.676A1.675,1.675,0,0,1,342.158,66.618Z" transform="translate(-113.325 -25.495)"/><path class="j" d="M350.522,55.46a1.676,1.676,0,1,1-1.676-1.676A1.676,1.676,0,0,1,350.522,55.46Z" transform="translate(-112.663 -26.378)"/><path class="m" d="M274.044,211.033a1.862,1.862,0,1,1-1.862-1.862A1.862,1.862,0,0,1,274.044,211.033Z" transform="translate(-118.746 -14.078)"/></g></g></svg>