<svg xmlns="http://www.w3.org/2000/svg" width="275.183" height="307.981" viewBox="0 0 275.183 307.981"><defs><style>.a{fill:none;stroke:#0e75bb;stroke-miterlimit:10;}.b{fill:#0e75bb;}</style></defs><g transform="matrix(-0.574, -0.819, 0.819, -0.574, 144.38, 368.372)"><path class="a" d="M5.606.066.507,2.2A.824.824,0,0,0,.288,3.586L3.943,6.732a.825.825,0,0,0,1.334-.408l1.444-5.28A.825.825,0,0,0,5.606.066Z" transform="translate(244.191 0.326)"/><path class="a" d="M.032,1.051l1.5,5.321a.824.824,0,0,0,1.349.387L6.446,3.514A.825.825,0,0,0,6.2,2.141L1.14.064A.825.825,0,0,0,.032,1.051Z" transform="translate(30.53 62.928)"/><path class="a" d="M2.062,6.845l3.917-3.9a.825.825,0,0,0-.32-1.367L1.087.044A.824.824,0,0,0,.006.924L.66,6.359A.826.826,0,0,0,2.062,6.845Z" transform="translate(352.913 121.017)"/><path class="a" d="M.03,1.042,1.469,6.379a.826.826,0,0,0,1.346.4l3.6-3.207A.825.825,0,0,0,6.189,2.2L1.147.067A.825.825,0,0,0,.03,1.042Z" transform="translate(336.592 66.407)"/><rect class="b" width="3.16" height="3.16" transform="translate(317.258 58.426) rotate(-37.391)"/><rect class="b" width="3.16" height="3.16" transform="matrix(0.999, -0.044, 0.044, 0.999, 293.84, 34.963)"/><rect class="b" width="3.16" height="3.16" transform="matrix(0.932, -0.363, 0.363, 0.932, 91.111, 76.884)"/><rect class="b" width="3.16" height="3.16" transform="translate(122.496 0) rotate(20.972)"/><rect class="b" width="3.16" height="3.16" transform="matrix(0.999, -0.044, 0.044, 0.999, 0, 156.623)"/></g></svg>