<svg xmlns="http://www.w3.org/2000/svg" width="77.076" height="80.574" viewBox="0 0 77.076 80.574"><defs><style>.a{fill:#166fdd;}</style></defs><path class="a" d="M42.539,3l3.736,7.479L5.892,31.416a3.507,3.507,0,1,0,3.23,6.226l40.294-20.9,3.633,7.273,10.51-19.3ZM70.565,27.523a3.5,3.5,0,0,0-3.5,3.5V83.574H81.074V31.026a3.5,3.5,0,0,0-3.5-3.5ZM49.545,38.032a3.5,3.5,0,0,0-3.5,3.5V83.574H60.055V41.536a3.5,3.5,0,0,0-3.5-3.5ZM28.526,48.542a3.5,3.5,0,0,0-3.5,3.5V83.574H39.036V52.045a3.5,3.5,0,0,0-3.5-3.5ZM7.507,59.052a3.5,3.5,0,0,0-3.5,3.5V83.574H18.016V62.555a3.5,3.5,0,0,0-3.5-3.5Z" transform="translate(-3.999 -3)"/></svg>