<svg xmlns="http://www.w3.org/2000/svg" width="64.288" height="64.288" viewBox="0 0 64.288 64.288"><defs><style>.a{fill:#166fdd;}</style></defs><path class="a" d="M12.855,0a12.85,12.85,0,0,0-1.687,25.589L6.789,29.931a1.307,1.307,0,0,0,1.848,1.848l2.932-2.973v9.761H1.285A1.285,1.285,0,0,0,0,39.853V62.991a1.285,1.285,0,0,0,1.285,1.285H24.424a1.285,1.285,0,0,0,1.285-1.285V39.853a1.285,1.285,0,0,0-1.285-1.285H14.14V28.806l2.932,2.973a1.361,1.361,0,0,0,1.848,0,1.322,1.322,0,0,0,0-1.848l-4.379-4.338A12.838,12.838,0,0,0,25.629,14.143h9.842L32.5,17.076a1.322,1.322,0,0,0,0,1.848,1.361,1.361,0,0,0,1.848,0l4.861-4.861L50.133,24.99V35.474L47.2,32.5a1.307,1.307,0,0,0-1.848,1.848l4.379,4.338a12.855,12.855,0,1,0,3.374,0l4.379-4.338A1.307,1.307,0,1,0,55.636,32.5L52.7,35.474V24.99L63.912,13.782a1.322,1.322,0,0,0,0-1.848L52.342.365a1.322,1.322,0,0,0-1.848,0L39.207,11.653,34.346,6.792A1.307,1.307,0,0,0,32.5,8.64l2.973,2.932H25.629A12.846,12.846,0,0,0,12.855,0Z" transform="translate(0 0.012)"/></svg>