<svg xmlns="http://www.w3.org/2000/svg" width="50" height="48.566" viewBox="0 0 50 48.566"><defs><style>.a{fill:#166fdd;}</style></defs><path class="a" d="M24.232,4c-4.081.092-7.017,1.276-8.722,3.52-1.931,2.541-2.271,6.326-1.033,11.564a3.8,3.8,0,0,0-.731,2.7c.312,2.3,1.185,3.242,1.9,3.63a10.846,10.846,0,0,0,2.131,4.883v3.785c-.649,1.462-2.762,2.307-5.2,3.281C8.471,39,3.361,41.047,3.006,47.506l-.062,1.121H27.185l4.161-4.163a12.65,12.65,0,0,1-.716-11.543V30.294a10.831,10.831,0,0,0,2.127-4.854c.757-.372,1.69-1.317,1.907-3.713a3.656,3.656,0,0,0-.681-2.64c.7-2.2,1.89-7.081-.068-10.318A5.944,5.944,0,0,0,29.76,6C28.735,4.706,26.8,4,24.232,4Zm.023,2.125c2.009,0,3.457.507,3.97,1.386l.259.444.511.071a4.007,4.007,0,0,1,3.1,1.843c1.362,2.252.665,6.353-.344,9.181l-.336.874.843.421a1.433,1.433,0,0,1,.286,1.2c-.142,1.572-.64,1.992-.747,2.011h-.967l-.091.961a8.808,8.808,0,0,1-1.7,4.385L28.5,29.2v5.08c-.018.4-1.555,1.594-4.25,1.594-2.645,0-4.25-1.107-4.25-1.594a1.042,1.042,0,0,0-.106-.448V29.821l.021-.6-.535-.305a8.7,8.7,0,0,1-1.72-4.4l-.015-.953h-.967c-.151-.06-.625-.564-.824-2.013a1.462,1.462,0,0,1,.38-1.26l.625-.417-.185-.726c-1.235-4.873-1.064-8.255.521-10.339C18.494,7.1,20.876,6.2,24.255,6.125ZM42.318,27.376A10.614,10.614,0,0,0,34.1,44.719l-6.344,6.344,1.5,1.5L35.6,46.222a10.622,10.622,0,1,0,6.718-18.846Zm0,2.125a8.5,8.5,0,1,1-8.5,8.5A8.484,8.484,0,0,1,42.318,29.5Z" transform="translate(-2.943 -4)"/></svg>