<svg xmlns="http://www.w3.org/2000/svg" width="50" height="46.363" viewBox="0 0 50 46.363"><defs><style>.a{fill:#166fdd;}</style></defs><path class="a" d="M24.963,5.031a2.38,2.38,0,0,0-1.636.72l-4.7,4.7A2.38,2.38,0,0,0,18.72,13.9l4.7,4.222A2.38,2.38,0,1,0,26.6,14.586l-.065-.058A13.676,13.676,0,0,1,26.2,41.875H5.379a2.38,2.38,0,1,0,0,4.759H44.845l-.7.7A2.379,2.379,0,1,0,47.513,50.7l4.547-4.548a2.38,2.38,0,0,0-.009-3.8l-4.538-4.538a2.379,2.379,0,1,0-3.365,3.365l.7.7H38.51A18.408,18.408,0,0,0,26.2,9.753h-.144l.637-.637a2.38,2.38,0,0,0-1.729-4.085Zm-11.3,10.645a2.38,2.38,0,0,0-1.789.906A18.4,18.4,0,0,0,7.759,28.194a2.38,2.38,0,0,0,.012.246A18.329,18.329,0,0,0,11.66,39.5H18.5A13.674,13.674,0,0,1,15.569,19.58a2.38,2.38,0,0,0-1.908-3.9Z" transform="translate(-3 -5.03)"/></svg>