<svg xmlns="http://www.w3.org/2000/svg" width="45.455" height="50" viewBox="0 0 45.455 50"><defs><style>.a{fill:#166fdd;}</style></defs><path class="a" d="M8.545,2A4.544,4.544,0,0,0,4,6.545V42.909a4.544,4.544,0,0,0,4.545,4.545H21.884a17.325,17.325,0,0,1-.994-2.273H20.9c-.041-.114-.072-.235-.111-.351q-.245-.736-.422-1.5A15.648,15.648,0,0,1,21.88,31.936a17.42,17.42,0,0,1,14.258-9.464,17.152,17.152,0,0,1,4.221.324V17.518A4.547,4.547,0,0,0,39.028,14.3L28.055,3.332A4.529,4.529,0,0,0,24.845,2ZM24.455,5.307l12.5,12.6H26.727a2.274,2.274,0,0,1-2.273-2.273ZM36.955,27a12.515,12.515,0,0,0-12.5,12.5,12.227,12.227,0,0,0,2.117,6.783l-.027.027L24.73,48.125a.938.938,0,0,0,.661,1.6h6.068a2.084,2.084,0,0,0,2.086-2.082V41.577a.94.94,0,0,0-1.6-.666l-2.077,2.077A7.767,7.767,0,0,1,29,39.5a7.955,7.955,0,0,1,15.909,0A8.768,8.768,0,0,1,39.6,47.588,2.273,2.273,0,0,0,40.364,52a2.3,2.3,0,0,0,.763-.133c4.827-1.716,8.327-6.917,8.327-12.367A12.515,12.515,0,0,0,36.955,27Z" transform="translate(-4 -2)"/></svg>