<svg xmlns="http://www.w3.org/2000/svg" width="54.383" height="50" viewBox="0 0 54.383 50"><defs><style>.a{fill:#166fdd;}</style></defs><path class="a" d="M28.807,4a1.163,1.163,0,0,0-.3.036,3.5,3.5,0,0,0-2.641,1.551A1.163,1.163,0,1,0,27.81,6.866a1.19,1.19,0,0,1,1.994,0,1.163,1.163,0,1,0,1.944-1.279,3.5,3.5,0,0,0-2.63-1.549l-.007,0a1.163,1.163,0,0,0-.3-.036Zm4.479,5.223-.981.347-.311.995.139.386,2.362,4.154.865.579.981-.347.311-.995-.136-.386L34.153,9.8Zm-8.551.02-1.013.243-.261.316L21.1,13.956,21.044,15l.8.665,1.013-.241.261-.316,2.362-4.154.055-1.04Zm4.072.565L6.325,49.349H51.288Zm9.2,7.722-.981.345-.311,1,.136.386,2.362,4.154.868.579.981-.347.311-.995-.136-.388L38.877,18.11Zm-18,.02L19,17.794l-.263.316-2.362,4.154L16.32,23.3l.8.665,1.013-.241.261-.316,2.362-4.154.055-1.04Zm7.629,2.728h2.33a1.161,1.161,0,0,1,1.161,1.163V37.721a1.163,1.163,0,0,1-1.163,1.163h-2.33a1.159,1.159,0,0,1-1.158-1.163V21.442A1.161,1.161,0,0,1,27.642,20.279Zm15.091,5.557-.983.347-.309.995.136.386,2.362,4.154.868.579.981-.347.309-.995-.136-.386L43.6,26.415Zm-27.444.023-1.013.243-.263.316-2.36,4.154-.055,1.04.8.665,1.013-.243.263-.313,2.362-4.154.055-1.04Zm32.167,8.285-.983.347-.309.995.136.386,2.362,4.154.865.579.983-.347.309-.995-.136-.386-2.362-4.154Zm-36.891.023-1.013.243-.261.313L6.93,38.877l-.055,1.04.8.668,1.015-.243.261-.316,2.362-4.152.055-1.042Zm17.076,8.205h2.33a1.161,1.161,0,0,1,1.161,1.163V45.86a1.161,1.161,0,0,1-1.161,1.163h-2.33a1.161,1.161,0,0,1-1.161-1.163V43.535A1.161,1.161,0,0,1,27.642,42.372Zm24.539.079L51.2,42.8l-.309.995.136.386,2.362,4.154.865.579.983-.347.309-.995-.136-.386-2.362-4.154Zm-46.337.023-1.015.243-.261.313L2.206,47.184l-.055,1.04.8.668,1.013-.243.261-.316L6.589,44.18l.055-1.04Zm-3.111,8.46L1.8,51.4l-.184,1.027.184.366.014.02.2.211.472.382.263.159.57.25.307.086.652.089L4.44,54H7.307l.931-.468.184-1.024-.713-.761-.4-.073H4.515L4.1,51.618l-.275-.123-.352-.284-.055.068ZM55.285,51l-1.036.118-.1.1-.007-.009-.352.284-.275.123-.413.057H50.309l-.933.468-.182,1.024.711.761.4.073h2.864l.159-.011.652-.089.307-.086.57-.25.263-.159.472-.382.2-.211.016-.02L56,51.765Zm-43.2.67-.931.468-.184,1.024.711.761.4.073h4.778l.931-.468.184-1.024-.713-.761-.4-.073Zm9.554,0-.931.468-.184,1.024.713.761.4.073h4.778l.931-.468.184-1.024-.711-.761-.4-.073Zm9.557,0-.931.468-.184,1.024.711.761.4.073h4.778l.931-.468.184-1.024-.711-.761-.4-.073Zm9.557,0-.931.468-.184,1.024.711.761.4.073h4.778l.931-.468.184-1.024-.713-.761-.4-.073Z" transform="translate(-1.615 -4)"/></svg>