<svg xmlns="http://www.w3.org/2000/svg" width="80.574" height="79.369" viewBox="0 0 80.574 79.369"><defs><style>.a{fill:#166fdd;}</style></defs><g transform="translate(0 0)"><path class="a" d="M29.289,25.5l3.961,1.636a22.827,22.827,0,0,0,0,9.041l-3.961,1.636a1.931,1.931,0,0,0-1.033,2.5l1.98,4.822a1.931,1.931,0,0,0,2.5,1.033l3.961-1.636A22.453,22.453,0,0,0,43.066,50.9L41.43,54.863a1.931,1.931,0,0,0,1.033,2.5l4.822,1.98a1.931,1.931,0,0,0,2.5-1.033l1.636-3.961a22.827,22.827,0,0,0,9.041,0l1.636,3.961a1.931,1.931,0,0,0,2.5,1.033l4.822-1.98a1.931,1.931,0,0,0,1.033-2.5L68.811,50.9a22.453,22.453,0,0,0,6.372-6.372l3.961,1.636a1.931,1.931,0,0,0,2.5-1.033l1.98-4.822a1.931,1.931,0,0,0-1.033-2.5l-3.961-1.636a22.827,22.827,0,0,0,0-9.041L82.588,25.5A1.931,1.931,0,0,0,83.621,23l-1.98-4.822a1.931,1.931,0,0,0-2.5-1.033l-3.961,1.636a22.453,22.453,0,0,0-6.372-6.372l1.636-3.961a1.931,1.931,0,0,0-1.033-2.5l-4.822-1.98a1.931,1.931,0,0,0-2.5,1.033L60.459,8.969a22.827,22.827,0,0,0-9.041,0L49.782,5.008a1.931,1.931,0,0,0-2.5-1.033l-4.822,1.98a1.931,1.931,0,0,0-1.033,2.5l1.636,3.961a22.453,22.453,0,0,0-6.372,6.372l-3.961-1.636a1.931,1.931,0,0,0-2.5,1.033L28.256,23A1.871,1.871,0,0,0,29.289,25.5Zm20.579-8.524a15.886,15.886,0,1,1-8.61,20.751A15.9,15.9,0,0,1,49.868,16.977Zm-2.5,22.387,2.5-9.127a.751.751,0,0,1,1.205-.344L52.279,31.1l7.663-7.663a1.351,1.351,0,0,1,1.894,0l2.325,2.325a1.351,1.351,0,0,1,0,1.894L56.5,35.317,57.7,36.522a.718.718,0,0,1-.344,1.205l-9.127,2.5A.69.69,0,0,1,47.371,39.364ZM4.836,67.261h2.5a14.239,14.239,0,0,0,2.239,5.425L7.85,74.408a1.612,1.612,0,0,0,0,2.239l1.894,1.894a1.612,1.612,0,0,0,2.239,0L13.7,76.819a14.239,14.239,0,0,0,5.425,2.239v2.5a1.635,1.635,0,0,0,1.636,1.636h2.669a1.635,1.635,0,0,0,1.636-1.636v-2.5a14.239,14.239,0,0,0,5.425-2.239l1.722,1.722a1.612,1.612,0,0,0,2.239,0l1.894-1.894a1.612,1.612,0,0,0,0-2.239l-1.722-1.722a14.239,14.239,0,0,0,2.239-5.425h2.5A1.635,1.635,0,0,0,41,65.626V62.956a1.635,1.635,0,0,0-1.636-1.636h-2.5A14.239,14.239,0,0,0,34.628,55.9l1.722-1.722a1.612,1.612,0,0,0,0-2.239l-1.894-1.894a1.612,1.612,0,0,0-2.239,0l-1.722,1.722a14.239,14.239,0,0,0-5.425-2.239v-2.5a1.635,1.635,0,0,0-1.636-1.636H20.765a1.635,1.635,0,0,0-1.636,1.636v2.5A14.239,14.239,0,0,0,13.7,51.763l-1.722-1.722a1.612,1.612,0,0,0-2.239,0L7.85,51.935a1.612,1.612,0,0,0,0,2.239L9.572,55.9A14.239,14.239,0,0,0,7.333,61.32h-2.5A1.635,1.635,0,0,0,3.2,62.956v2.669A1.583,1.583,0,0,0,4.836,67.261ZM15.771,67l4.994-4.994L19.646,60.89a.616.616,0,0,1,.258-1.033L28,57.7a.685.685,0,0,1,.775.775L26.62,66.573a.617.617,0,0,1-1.033.258l-1.119-1.119-4.994,4.994a1.308,1.308,0,0,1-1.722,0l-2.066-2.066A1.124,1.124,0,0,1,15.771,67Z" transform="translate(-3.2 -3.822)"/></g></svg>