<svg xmlns="http://www.w3.org/2000/svg" width="79" height="81" viewBox="0 0 79 81"><defs><style>.a{fill:#166fdd;}.b{fill:none;}</style></defs><path class="a" d="M11.354,2A7.181,7.181,0,0,0,4,9V65a7.181,7.181,0,0,0,7.354,7H34.372a24.329,24.329,0,0,1-2.126-3.5h.007c-.015-.028-.028-.057-.043-.089A23.753,23.753,0,0,1,31,65.455,23.146,23.146,0,0,1,29.739,58c0-13.53,11.524-24.5,25.739-24.5a27.07,27.07,0,0,1,3.677.28v-.021a27.525,27.525,0,0,1,3.677.772V25.9a6.835,6.835,0,0,0-2.155-4.949L42.925,4.051A7.55,7.55,0,0,0,37.726,2ZM55.486,40.5C45.521,40.5,37.094,48.519,37.094,58c0,9.8,8.09,17.492,18.385,17.492a20.528,20.528,0,0,0,10.3-2.8l5.551,5.291a3.771,3.771,0,0,0,5.149,0,3.347,3.347,0,0,0,0-4.9L70.92,67.8A18.161,18.161,0,0,0,73.864,58C73.864,48.2,65.778,40.5,55.486,40.5Zm-.007,7c6.251,0,11.031,4.55,11.031,10.5S61.73,68.5,55.479,68.5,44.448,63.947,44.448,58,49.228,47.5,55.479,47.5Z" transform="translate(-1.273)"/><rect class="b" width="79" height="81"/></svg>