<svg xmlns="http://www.w3.org/2000/svg" width="80.574" height="64.29" viewBox="0 0 80.574 64.29"><defs><style>.a{fill:#166fdd;}</style></defs><g transform="translate(0 0)"><path class="a" d="M82.565,75.9H51.354a.365.365,0,0,0-.339.339v1.272a1.43,1.43,0,0,1-1.442,1.442H36.087a1.486,1.486,0,0,1-1.442-1.442V76.324a.365.365,0,0,0-.339-.339H3.009a.547.547,0,0,0-.509.509v5.174a4.525,4.525,0,0,0,4.5,4.5H78.579a4.525,4.525,0,0,0,4.5-4.5V76.494C83.074,76.07,82.82,75.9,82.565,75.9Z" transform="translate(-2.5 -21.873)"/><path class="a" d="M13.7,62.411h60.3a3.891,3.891,0,0,0,3.9-3.9V20.851A8.688,8.688,0,0,0,69.255,12.2h-50.8A8.688,8.688,0,0,0,9.8,20.851V58.509A3.891,3.891,0,0,0,13.7,62.411Zm3.986-41.559a.76.76,0,0,1,.763-.763H69.34a.76.76,0,0,1,.763.763V54.608H17.688Z" transform="translate(-3.608 -12.2)"/><path class="a" d="M61.292,29.2a5.7,5.7,0,0,0-5.174,8.057l-2.544,2.629a5.691,5.691,0,0,0-2.375-.509,6.371,6.371,0,0,0-2.205.424l-2.544-2.544a5.418,5.418,0,0,0,.509-2.375A5.683,5.683,0,1,0,36.1,37.257L33.557,39.8a5.652,5.652,0,1,0,2.8,2.8L38.9,40.056a5.691,5.691,0,0,0,2.375.509,4.5,4.5,0,0,0,2.375-.594l2.46,2.46a6.233,6.233,0,0,0-.594,2.544A5.683,5.683,0,1,0,56.373,42.6l2.544-2.629A5.654,5.654,0,1,0,61.292,29.2ZM31.267,46.672a1.792,1.792,0,0,1-1.781-1.781,1.739,1.739,0,0,1,1.781-1.781,1.781,1.781,0,1,1,0,3.562Zm8.312-11.789a1.781,1.781,0,0,1,3.562,0,1.739,1.739,0,0,1-1.781,1.781A1.849,1.849,0,0,1,39.579,34.883ZM51.2,46.672a1.792,1.792,0,0,1-1.781-1.781A1.739,1.739,0,0,1,51.2,43.11a1.791,1.791,0,0,1,1.781,1.781A1.739,1.739,0,0,1,51.2,46.672ZM61.292,36.579A1.792,1.792,0,0,1,59.511,34.8a1.781,1.781,0,1,1,1.781,1.781Z" transform="translate(-5.993 -14.781)"/></g></svg>