<svg xmlns="http://www.w3.org/2000/svg" width="50" height="50" viewBox="0 0 50 50"><defs><style>.a{fill:#166fdd;}</style></defs><path class="a" d="M20.219,0a1.018,1.018,0,0,0-1,.844L18.25,6.688a16.855,16.855,0,0,0-3.437,1.406L10,4.656a.99.99,0,0,0-1.281.094L4.813,8.656a1,1,0,0,0-.094,1.281l3.375,4.844A17.145,17.145,0,0,0,6.656,18.25l-5.812.969a1.025,1.025,0,0,0-.844,1v5.5a.974.974,0,0,0,.813.969l5.844,1.031a16.924,16.924,0,0,0,1.438,3.469L4.656,36a.99.99,0,0,0,.094,1.281l3.906,3.906a1,1,0,0,0,1.281.094l4.875-3.406a16.975,16.975,0,0,0,3.438,1.438l.969,5.844a1.022,1.022,0,0,0,1,.844h5.5c.031,0,.137,0,.281,0v3a1,1,0,0,0,1,1H49a1,1,0,0,0,1-1V31.844A2.844,2.844,0,0,0,47.156,29H38.781c.16-.43.344-.891.469-1.281l5.906-1.031A1,1,0,0,0,46,25.719v-5.5a1.018,1.018,0,0,0-.844-1L39.25,18.25a16.865,16.865,0,0,0-1.406-3.406l3.438-4.906a1,1,0,0,0-.094-1.281L37.281,4.75A.986.986,0,0,0,36,4.656l-4.844,3.5a16.975,16.975,0,0,0-3.437-1.437L26.688.813A.974.974,0,0,0,25.719,0ZM23,15.656A7.344,7.344,0,1,1,15.656,23,7.35,7.35,0,0,1,23,15.656ZM28.844,31H47.156a.843.843,0,0,1,.844.844V32H28v-.156A.84.84,0,0,1,28.844,31ZM28,34H48V48H28Zm9,.594-.719.688-3.344,3.344-1.281-1.094-.75-.656-1.312,1.531.75.625,2,1.719.719.625,4.656-4.656L38.406,36Zm0,5-.719.688-3.344,3.344-1.281-1.094-.75-.656-1.312,1.531.75.625,2,1.719.719.625,4.656-4.656L38.406,41Z"/></svg>