<svg xmlns="http://www.w3.org/2000/svg" width="449.984" height="503.223" viewBox="0 0 449.984 503.223"><defs><style>.a{fill:none;stroke:#0e75bb;stroke-miterlimit:10;}.b{fill:#0e75bb;}</style></defs><g transform="matrix(-0.574, -0.819, 0.819, -0.574, 235.879, 602.522)"><path class="a" d="M9.176.108.83,3.6A1.35,1.35,0,0,0,.471,5.87L6.454,11.02a1.35,1.35,0,0,0,2.183-.668L11,1.71A1.35,1.35,0,0,0,9.176.108Z" transform="translate(399.703 0.534)"/><path class="a" d="M.053,1.72,2.5,10.43a1.349,1.349,0,0,0,2.208.633l5.842-5.31a1.35,1.35,0,0,0-.4-2.248L1.866.1A1.35,1.35,0,0,0,.053,1.72Z" transform="translate(49.973 103.003)"/><path class="a" d="M3.375,11.2,9.787,4.822a1.351,1.351,0,0,0-.523-2.238L1.78.072A1.349,1.349,0,0,0,.01,1.512l1.07,8.9A1.351,1.351,0,0,0,3.375,11.2Z" transform="translate(577.664 198.087)"/><path class="a" d="M.048,1.706,2.4,10.441a1.351,1.351,0,0,0,2.2.658L10.5,5.85A1.35,1.35,0,0,0,10.131,3.6L1.878.109A1.351,1.351,0,0,0,.048,1.706Z" transform="translate(550.949 108.698)"/><rect class="b" width="5.172" height="5.172" transform="translate(535.125 167.185) rotate(-37.391)"/><rect class="b" width="5.172" height="5.172" transform="matrix(0.999, -0.044, 0.044, 0.999, 437.379, 119.485)"/><rect class="b" width="5.172" height="5.172" transform="matrix(0.932, -0.363, 0.363, 0.932, 149.134, 125.846)"/><rect class="b" width="5.172" height="5.172" transform="translate(200.507 0) rotate(20.972)"/><rect class="b" width="5.172" height="5.172" transform="matrix(0.999, -0.044, 0.044, 0.999, 0, 256.368)"/></g></svg>